<?xml version="1.0" encoding="UTF-8"?>
<svg width="102px" height="102px" viewBox="0 0 102 102" version="1.1" xmlns="http://www.w3.org/2000/svg" xmlns:xlink="http://www.w3.org/1999/xlink">
    <title>1.圈5</title>
    <g id="页面-1" stroke="none" stroke-width="1" fill="none" fill-rule="evenodd">
        <g id="01首页备份-2" transform="translate(-1599.000000, -1052.000000)">
            <g id="编组-6备份" transform="translate(1420.000000, 891.000000)">
                <g id="1.圈5" transform="translate(180.000000, 162.000000)">
                    <path d="M50.0173307,0.216533865 C77.5073705,0.216533865 99.8181275,22.5272908 99.8181275,50.0173307 C99.8181275,77.5205179 77.5073705,99.8181275 50.0173307,99.8181275 C22.5141434,99.8181275 0.216533865,77.5205179 0.216533865,50.0173307 C0.216533865,22.5272908 22.5141434,0.216533865 50.0173307,0.216533865 Z" id="Stroke-1" stroke="#FFFFFF" stroke-width="0.5" opacity="0.800000012"></path>
                    <path d="M50.0605179,50.0173307 L60.9473705,42.9272908 C64.8621116,48.9400398 63.1629084,56.988247 57.1505578,60.9037849 C51.1382072,64.8193227 43.0903984,63.1197211 39.1748606,57.1069721 C38.5198805,56.1013944 38.0075299,55.0101594 37.6521514,53.8639442 L50.0605179,50.0173307 Z" id="Stroke-13" stroke="#FFFFFF" stroke-width="0.716334661" opacity="0.300000012" stroke-linecap="round"></path>
                    <path d="M50.0605179,50.0173307 L78.542988,79.1005976 C62.4804382,94.8304781 36.7079283,94.5615538 20.9780478,78.499004 C5.24816733,62.4368526 5.51709163,36.6635458 21.5796414,20.9336653 C37.6413944,5.20378486 63.4143028,5.47350598 79.1441833,21.5364542 C81.5971713,24.0412351 83.71749,26.8523904 85.4493625,29.8998008 L50.0605179,50.0173307 Z" id="Stroke-21" stroke="#FFFFFF" stroke-width="0.5" opacity="0.300000012" stroke-linecap="round"></path>
                    <path d="M50.0605179,50.0173307 L64.8398008,36.6603586 C72.2170916,44.82251 71.5800398,57.4193227 63.41749,64.7962151 C55.2553386,72.1727092 42.6593227,71.5364542 35.2824303,63.3743028 C34.8441833,62.8894422 34.430239,62.3830677 34.0413944,61.8575697 L50.0605179,50.0173307 Z" id="Stroke-15" stroke="#FFFFFF" stroke-width="0.5" opacity="0.300000012" stroke-linecap="round"></path>
                    <path d="M50.0605179,50.0173307 L60.2581275,74.8543825 C46.5417928,80.4866534 30.8561355,73.9320717 25.2238645,60.2149402 C19.5915936,46.4974104 26.1465737,30.8125498 39.8633068,25.1810757 C53.5804382,19.5476096 69.2656972,26.1025896 74.8987649,39.8197211 C77.2804382,45.6209163 77.5561355,52.0727092 75.6784462,58.0559761 L50.0605179,50.0173307 Z" id="Stroke-17" stroke="#FFFFFF" stroke-width="0.5" opacity="0.300000012" stroke-linecap="round"></path>
                    <path d="M50.0605179,50.0173307 L83.7015538,53.0655378 C82.0178884,71.6448207 65.5911952,85.3412351 47.0127092,83.6575697 C28.4338247,81.973506 14.7374104,65.5476096 16.4210757,46.9687251 C17.4931873,35.1412351 24.6979681,24.7444223 35.3967729,19.5878486 L50.0605179,50.0173307 Z" id="Stroke-19" stroke="#FFFFFF" stroke-width="0.5" opacity="0.300000012" stroke-linecap="round"></path>
                    <path d="M63.0417928,49.5652191 C63.315498,56.7345418 57.7254582,62.7688048 50.5561355,63.0421116 C43.3852191,63.3158167 37.351753,57.7249801 37.0780478,50.5548606 C36.804741,43.384741 42.3951793,37.3516733 49.5649004,37.0775697 C52.1358167,36.9787649 54.6768526,37.6476892 56.8680876,38.995498" id="Stroke-3" stroke="#0053FC" stroke-width="1.9" stroke-linecap="round"></path>
                    <path d="M39.9077689,32.9204781 C49.373506,27.3133068 61.5918327,30.4415936 67.199004,39.9081275 C72.1185259,48.21251 70.3758964,58.8475697 63.0659363,65.1491633" id="Stroke-5" stroke="#0053FC" stroke-width="1.05776892" stroke-linecap="round"></path>
                    <path d="M48.2813147,23.2703984 C63.0765339,22.2883267 75.8669721,33.4855378 76.8510359,48.2815538 C77.8331076,63.0767729 66.6343028,75.868008 51.8398805,76.8500797 C48.6785259,77.0600398 45.5056175,76.7090438 42.4673705,75.8134263" id="Stroke-7" stroke="#0053FC" stroke-width="1.44183267" stroke-linecap="round"></path>
                    <path d="M31.0436255,22.1444622 C46.4611554,11.6404781 67.4743028,15.6265339 77.9766932,31.0428685 C86.6810757,43.8213546 85.5986056,60.8779283 75.3492032,72.4528287" id="Stroke-9" stroke="#0053FC" stroke-width="1.0059761" stroke-linecap="round"></path>
                    <path d="M9.36159363,50.8764143 C8.91059761,28.3995219 26.7667729,9.81306773 49.2436653,9.36087649 C51.9643825,9.30709163 54.6839044,9.52541833 57.3615936,10.0138645" id="Stroke-11" stroke="#0053FC" stroke-width="0.7" stroke-linecap="round"></path>
                    <path d="M50.0173307,47.4191235 C51.4515936,47.4191235 52.6153386,48.5832669 52.6153386,50.0171315 C52.6153386,51.4521912 51.4515936,52.6155378 50.0173307,52.6155378 C48.5822709,52.6155378 47.4193227,51.4521912 47.4193227,50.0171315 C47.4193227,48.5832669 48.5822709,47.4191235 50.0173307,47.4191235" id="Fill-23" fill="#FFFFFF"></path>
                </g>
            </g>
        </g>
    </g>
</svg>