<?xml version="1.0" encoding="UTF-8"?>
<svg width="102px" height="102px" viewBox="0 0 102 102" version="1.1" xmlns="http://www.w3.org/2000/svg" xmlns:xlink="http://www.w3.org/1999/xlink">
    <title>1.圈6</title>
    <g id="页面-1" stroke="none" stroke-width="1" fill="none" fill-rule="evenodd">
        <g id="01首页备份-2" transform="translate(-1749.000000, -1052.000000)">
            <g id="编组-6备份" transform="translate(1420.000000, 891.000000)">
                <g id="1.圈6" transform="translate(330.000000, 162.000000)">
                    <path d="M50.0172908,0.216573705 C77.5073307,0.216573705 99.8180876,22.5273307 99.8180876,50.0173705 C99.8180876,77.5205578 77.5073307,99.8181673 50.0172908,99.8181673 C22.5141036,99.8181673 0.216494024,77.5205578 0.216494024,50.0173705 C0.216494024,22.5273307 22.5141036,0.216573705 50.0172908,0.216573705 Z" id="Stroke-1" stroke="#FFFFFF" stroke-width="0.5" opacity="0.800000012"></path>
                    <path d="M49.8386853,50.1959761 L59.6052191,32.8338247 C69.1928685,38.2278486 72.5948606,50.3728685 67.2008367,59.9617131 C61.8064143,69.5505578 49.6617928,72.951753 40.0729482,67.5581275 C30.4841036,62.164502 27.0829084,50.0190837 32.4765339,40.4294422 C33.3175697,38.9346215 34.348247,37.5545418 35.5434661,36.3226693 L49.8386853,50.1959761 Z" id="Stroke-15" stroke="#FFFFFF" stroke-width="0.5" opacity="0.300000012" stroke-linecap="round"></path>
                    <path d="M49.8386853,50.1959761 L24.6235458,59.4186853 C19.5299203,45.4927888 26.6896813,30.0744622 40.6159761,24.9800398 C46.1135857,22.9688845 52.1183665,22.8115139 57.7155777,24.5278486 L49.8386853,50.1959761 Z" id="Stroke-17" stroke="#FFFFFF" stroke-width="0.5" opacity="0.300000012" stroke-linecap="round"></path>
                    <path d="M49.8386853,50.1959761 L18.8693625,36.7123108 C26.3163745,19.6071315 46.2187649,11.7788446 63.3223506,19.2258566 C79.684502,26.3501594 87.6821116,44.9716733 81.5833068,61.7405976 L49.8386853,50.1959761 Z" id="Stroke-19" stroke="#FFFFFF" stroke-width="0.5" opacity="0.300000012" stroke-linecap="round"></path>
                    <path d="M49.8386853,50.1959761 L47.3454582,37.4449801 C54.3876892,36.0696813 61.2123904,40.6617131 62.5896813,47.7031474 C63.9649801,54.7441833 59.3729482,61.5692829 52.3315139,62.9461753 C47.8490438,63.8222709 43.2350996,62.2804382 40.1801195,58.8844223 L49.8386853,50.1959761 Z" id="Stroke-13" stroke="#FFFFFF" stroke-width="0.5" opacity="0.300000012" stroke-linecap="round"></path>
                    <path d="M49.8386853,50.1959761 L19.6123904,22.9306375 C34.6705578,6.23780876 60.4103984,4.91071713 77.1040239,19.9688845 C93.7968526,35.0270518 95.1239442,60.7676892 80.0657769,77.4613147 C77.3012351,80.526255 74.0860956,83.1529482 70.5315139,85.2509562 L49.8386853,50.1959761 Z" id="Stroke-21" stroke="#FFFFFF" stroke-width="0.732270916" opacity="0.300000012" stroke-linecap="round"></path>
                    <path d="M56.8594422,38.9694024 C62.960239,42.7458964 64.8450996,50.7522709 61.0701992,56.8538645 C57.9403187,61.9104382 51.7769721,64.1968924 46.1080478,62.4048606" id="Stroke-3" stroke="#0053FC" stroke-width="1.0059761" stroke-linecap="round"></path>
                    <path d="M41.5612749,31.9832669 C51.5206375,27.3099602 63.3827888,31.5952191 68.056494,41.5553785 C68.6230279,42.7613546 69.0664542,44.0207171 69.3796016,45.3143426" id="Stroke-5" stroke="#0053FC" stroke-width="0.7" stroke-linecap="round"></path>
                    <path d="M72.877012,35.9260956 C80.6598805,48.5488048 76.7367729,65.0894422 64.1140637,72.8715139 C51.4913546,80.6539841 34.9507171,76.7304781 27.168247,64.1081673 C25.8670518,61.9974104 24.8642629,59.7165339 24.1889641,57.3308765" id="Stroke-7" stroke="#0053FC" stroke-width="1.38645418" stroke-linecap="round"></path>
                    <path d="M75.634741,27.9960956 C87.796494,42.1411155 86.1889243,63.4674104 72.0439044,75.6299602 C57.8984861,87.7921116 36.572988,86.1845418 24.4104382,72.0391235 C23.6877291,71.1984861 23.0068526,70.3231873 22.370996,69.4160159" id="Stroke-9" stroke="#0053FC" stroke-width="1.25737052" stroke-linecap="round"></path>
                    <path d="M64.5470518,88.0445817 C43.5454582,96.066494 20.0167729,85.5437849 11.9956574,64.5417928 C3.97374502,43.5405976 14.4964542,20.0119124 35.4984462,11.9903984 C56.5008367,3.96848606 80.0275299,14.4915936 88.0494422,35.4927888 C91.4430677,44.3740637 91.6195618,54.1641036 88.548247,63.1621116" id="Stroke-11" stroke="#0053FC" stroke-width="1.9" stroke-linecap="round"></path>
                    <path d="M50.0172908,47.4191633 C51.4515538,47.4191633 52.6152988,48.5829084 52.6152988,50.0171713 C52.6152988,51.4522311 51.4515538,52.6155777 50.0172908,52.6155777 C48.5822311,52.6155777 47.4192829,51.4522311 47.4192829,50.0171713 C47.4192829,48.5829084 48.5822311,47.4191633 50.0172908,47.4191633" id="Fill-23" fill="#FFFFFF"></path>
                </g>
            </g>
        </g>
    </g>
</svg>