<?xml version="1.0" encoding="UTF-8"?>
<svg width="868px" height="77px" viewBox="0 0 868 77" version="1.1" xmlns="http://www.w3.org/2000/svg" xmlns:xlink="http://www.w3.org/1999/xlink">
    <title>地图配图9</title>
    <defs>
        <polygon id="path-1" points="0.178328655 0.436952838 0.631975704 0.436952838 0.631975704 69.8616455 0.178328655 69.8616455"></polygon>
        <polygon id="path-3" points="0.0547551988 0.105790492 0.508402248 0.105790492 0.508402248 29.9407052 0.0547551988 29.9407052"></polygon>
        <polygon id="path-5" points="0.137137503 0.237348136 0.590784552 0.237348136 0.590784552 45.3647049 0.137137503 45.3647049"></polygon>
        <polygon id="path-7" points="0.223965548 0.33438324 0.677612597 0.33438324 0.677612597 34.0235287 0.223965548 34.0235287"></polygon>
        <polygon id="path-9" points="0.398075285 0.0572956223 0.851722334 0.0572956223 0.851722334 35.3844698 0.398075285 35.3844698"></polygon>
        <polygon id="path-11" points="0.205819666 0.0109782586 0.659466715 0.0109782586 0.659466715 31.7552934 0.205819666 31.7552934"></polygon>
        <polygon id="path-13" points="0.292647711 0.380246956 0.74629476 0.380246956 0.74629476 60.7887046 0.292647711 60.7887046"></polygon>
        <polygon id="path-15" points="0.187220137 0.236486207 0.640867186 0.236486207 0.640867186 60.3350575 0.187220137 60.3350575"></polygon>
        <polygon id="path-17" points="0.324992746 0.182865125 0.778639795 0.182865125 0.778639795 62.6032928 0.324992746 62.6032928"></polygon>
        <polygon id="path-19" points="0.393674909 0.370266721 0.847321958 0.370266721 0.847321958 74.8517631 0.393674909 74.8517631"></polygon>
        <polygon id="path-21" points="0.288247335 0.350759898 0.741894384 0.350759898 0.741894384 72.1298808 0.288247335 72.1298808"></polygon>
        <polygon id="path-23" points="0.127883103 0.428288179 0.581530152 0.428288179 0.581530152 40.3745874 0.127883103 40.3745874"></polygon>
    </defs>
    <g id="页面-1" stroke="none" stroke-width="1" fill="none" fill-rule="evenodd" opacity="0.400000006">
        <g id="01首页备份" transform="translate(-526.000000, -2177.000000)">
            <g id="地图配图9" transform="translate(529.000000, 2177.000000)">
                <line x1="0.354661263" y1="17.3667885" x2="0.354661263" y2="75.0716004" id="Stroke-1" stroke="#FFFFFF" stroke-width="5.24597447"></line>
                <g id="编组" transform="translate(8.619294, 13.375783)">
                    <polygon id="Clip-4" points="0.215119431 0.236486207 0.66876648 0.236486207 0.66876648 61.6959987 0.215119431 61.6959987"></polygon>
                    <line x1="0.441942955" y1="0.236486207" x2="0.441942955" y2="61.6961347" id="Stroke-3" stroke="#DD1920" stroke-width="5.24098436"></line>
                </g>
                <line x1="17.7673589" y1="22.6059129" x2="17.7673589" y2="75.0715551" id="Stroke-5" stroke="#DD1920" stroke-width="5.22737494"></line>
                <line x1="26.4739345" y1="15.4474532" x2="26.4739345" y2="75.0716458" id="Stroke-7" stroke="#FFFFFF" stroke-width="5.20423895"></line>
                <line x1="35.1800565" y1="37.4081439" x2="35.1800565" y2="75.0717365" id="Stroke-9" stroke="#FFFFFF" stroke-width="5.17203"></line>
                <line x1="43.8866321" y1="0.00018145882" x2="43.8866321" y2="75.0715097" id="Stroke-11" stroke="#FFFFFF" stroke-width="5.13120177"></line>
                <line x1="52.5927541" y1="35.8110795" x2="52.5927541" y2="75.0715097" id="Stroke-13" stroke="#FFFFFF" stroke-width="5.0813006"></line>
                <line x1="61.2992843" y1="37.3297084" x2="61.2992843" y2="75.0717819" id="Stroke-15" stroke="#FFFFFF" stroke-width="5.02278013"></line>
                <line x1="70.0054516" y1="64.3713368" x2="70.0054516" y2="75.0715097" id="Stroke-17" stroke="#DD1920" stroke-width="4.95609401"></line>
                <line x1="78.7119819" y1="28.2131265" x2="78.7119819" y2="75.0716912" id="Stroke-19" stroke="#FFFFFF" stroke-width="4.88124225"></line>
                <line x1="87.4181039" y1="61.6106676" x2="87.4181039" y2="75.0717365" id="Stroke-21" stroke="#FFFFFF" stroke-width="4.79867848"></line>
                <g id="编组" transform="translate(95.719527, 5.210136)">
                    <mask id="mask-2" fill="white">
                        <use xlink:href="#path-1"></use>
                    </mask>
                    <g id="Clip-24"></g>
                    <line x1="0.405152179" y1="0.436952838" x2="0.405152179" y2="69.8617363" id="Stroke-23" stroke="#FFFFFF" stroke-width="4.70885637" mask="url(#mask-2)"></line>
                </g>
                <line x1="104.830801" y1="57.2578335" x2="104.830801" y2="75.0716458" id="Stroke-25" stroke="#FFFFFF" stroke-width="4.6117759"></line>
                <line x1="113.537377" y1="47.2906634" x2="113.537377" y2="75.0715551" id="Stroke-27" stroke="#FFFFFF" stroke-width="4.50789073"></line>
                <g id="编组" transform="translate(121.577409, 26.985195)">
                    <polygon id="Clip-30" points="0.439266437 0.294507664 0.892913486 0.294507664 0.892913486 48.0865872 0.439266437 48.0865872"></polygon>
                    <line x1="0.666089962" y1="0.294507664" x2="0.666089962" y2="48.0866779" id="Stroke-29" stroke="#FFFFFF" stroke-width="4.39765449"></line>
                </g>
                <line x1="130.950075" y1="49.8045486" x2="130.950075" y2="75.0717819" id="Stroke-31" stroke="#FFFFFF" stroke-width="4.28197449"></line>
                <line x1="139.656197" y1="29.735566" x2="139.656197" y2="75.0716912" id="Stroke-33" stroke="#FFFFFF" stroke-width="4.16085073"></line>
                <g id="编组" transform="translate(147.888938, 29.707077)">
                    <polygon id="Clip-36" points="0.247010818 0.332160369 0.700657867 0.332160369 0.700657867 45.3647049 0.247010818 45.3647049"></polygon>
                    <line x1="0.473834343" y1="0.332160369" x2="0.473834343" y2="45.3647956" id="Stroke-35" stroke="#FFFFFF" stroke-width="4.03473685"></line>
                </g>
                <g id="编组" transform="translate(156.508232, 10.200254)">
                    <polygon id="Clip-38" points="0.333838863 0.350759898 0.787485912 0.350759898 0.787485912 64.871528 0.333838863 64.871528"></polygon>
                    <line x1="0.560662388" y1="0.350759898" x2="0.560662388" y2="64.8716187" id="Stroke-37" stroke="#DD1920" stroke-width="3.9040865"></line>
                </g>
                <line x1="165.77547" y1="3.73478542" x2="165.77547" y2="75.0716912" id="Stroke-39" stroke="#FFFFFF" stroke-width="3.76980698"></line>
                <g id="编组" transform="translate(174.200467, 45.131077)">
                    <mask id="mask-4" fill="white">
                        <use xlink:href="#path-3"></use>
                    </mask>
                    <g id="Clip-42"></g>
                    <line x1="0.281578723" y1="0.105790492" x2="0.281578723" y2="29.940796" id="Stroke-41" stroke="#FFFFFF" stroke-width="3.63235192"></line>
                </g>
                <line x1="183.188167" y1="30.6333335" x2="183.188167" y2="75.0716912" id="Stroke-43" stroke="#FFFFFF" stroke-width="3.49172134"></line>
                <g id="编组" transform="translate(191.439055, 14.283077)">
                    <polygon id="Clip-46" points="0.228864936 0.18377242 0.682511985 0.18377242 0.682511985 60.7887046 0.228864936 60.7887046"></polygon>
                    <line x1="0.455688461" y1="0.18377242" x2="0.455688461" y2="60.7887499" id="Stroke-45" stroke="#DD1920" stroke-width="3.34927616"></line>
                </g>
                <line x1="200.600865" y1="55.4359416" x2="200.600865" y2="75.0716004" id="Stroke-47" stroke="#DD1920" stroke-width="3.2050164"></line>
                <line x1="209.307395" y1="2.51651627" x2="209.307395" y2="75.0714643" id="Stroke-49" stroke="#FFFFFF" stroke-width="3.05984935"></line>
                <line x1="218.013563" y1="20.5190911" x2="218.013563" y2="75.0715097" id="Stroke-51" stroke="#DD1920" stroke-width="2.91422864"></line>
                <line x1="226.720093" y1="5.94277634" x2="226.720093" y2="75.0717819" id="Stroke-53" stroke="#FFFFFF" stroke-width="2.76906159"></line>
                <line x1="235.426215" y1="18.278982" x2="235.426215" y2="75.0715097" id="Stroke-55" stroke="#FFFFFF" stroke-width="2.62434818"></line>
                <line x1="244.132791" y1="56.2721492" x2="244.132791" y2="75.0717365" id="Stroke-57" stroke="#FFFFFF" stroke-width="2.48054206"></line>
                <line x1="252.838913" y1="14.7733791" x2="252.838913" y2="75.0716912" id="Stroke-59" stroke="#FFFFFF" stroke-width="2.33900418"></line>
                <line x1="261.545488" y1="49.1630916" x2="261.545488" y2="75.0717819" id="Stroke-61" stroke="#FFFFFF" stroke-width="2.20018819"></line>
                <line x1="270.25161" y1="41.433581" x2="270.25161" y2="75.0715097" id="Stroke-63" stroke="#FFFFFF" stroke-width="2.06409407"></line>
                <line x1="278.958186" y1="50.3142664" x2="278.958186" y2="75.0716004" id="Stroke-65" stroke="#FFFFFF" stroke-width="1.93162913"></line>
                <line x1="287.664308" y1="66.8524232" x2="287.664308" y2="75.0716004" id="Stroke-67" stroke="#FFFFFF" stroke-width="1.80324702"></line>
                <line x1="296.370883" y1="42.7003904" x2="296.370883" y2="75.0717365" id="Stroke-69" stroke="#DD1920" stroke-width="1.67940138"></line>
                <line x1="305.077005" y1="45.363344" x2="305.077005" y2="75.0717819" id="Stroke-71" stroke="#FFFFFF" stroke-width="1.5609995"></line>
                <line x1="313.783581" y1="13.5821473" x2="313.783581" y2="75.0717365" id="Stroke-73" stroke="#FFFFFF" stroke-width="1.44804138"></line>
                <line x1="322.489703" y1="31.7397333" x2="322.489703" y2="75.0716458" id="Stroke-75" stroke="#FFFFFF" stroke-width="1.34098068"></line>
                <line x1="331.196279" y1="20.0605447" x2="331.196279" y2="75.0716004" id="Stroke-77" stroke="#FFFFFF" stroke-width="1.24027103"></line>
                <line x1="339.9024" y1="60.5177865" x2="339.9024" y2="75.0716912" id="Stroke-79" stroke="#FFFFFF" stroke-width="1.14681974"></line>
                <line x1="348.608976" y1="47.9066708" x2="348.608976" y2="75.0715097" id="Stroke-81" stroke="#FFFFFF" stroke-width="1.06017315"></line>
                <line x1="357.315506" y1="42.5666099" x2="357.315506" y2="75.0717819" id="Stroke-83" stroke="#FFFFFF" stroke-width="0.981692214"></line>
                <line x1="366.021628" y1="63.5362633" x2="366.021628" y2="75.0716004" id="Stroke-85" stroke="#FFFFFF" stroke-width="0.910923274"></line>
                <line x1="374.728204" y1="28.5542691" x2="374.728204" y2="75.0716912" id="Stroke-87" stroke="#FFFFFF" stroke-width="0.848319981"></line>
                <line x1="383.434326" y1="21.6474474" x2="383.434326" y2="75.0716458" id="Stroke-89" stroke="#FFFFFF" stroke-width="0.794335983"></line>
                <line x1="392.140902" y1="13.5103803" x2="392.140902" y2="75.0716458" id="Stroke-91" stroke="#FFFFFF" stroke-width="0.748517631"></line>
                <line x1="400.847024" y1="11.2026778" x2="400.847024" y2="75.0716458" id="Stroke-93" stroke="#FFFFFF" stroke-width="0.712225867"></line>
                <g id="编组" transform="translate(409.189638, 29.707077)">
                    <mask id="mask-6" fill="white">
                        <use xlink:href="#path-5"></use>
                    </mask>
                    <g id="Clip-96"></g>
                    <line x1="0.363961027" y1="0.237348136" x2="0.363961027" y2="45.3647956" id="Stroke-95" stroke="#DD1920" stroke-width="0.684553397" mask="url(#mask-6)"></line>
                </g>
                <g id="编组" transform="translate(417.808932, 41.048253)">
                    <mask id="mask-8" fill="white">
                        <use xlink:href="#path-7"></use>
                    </mask>
                    <g id="Clip-98"></g>
                    <line x1="0.450789073" y1="0.33438324" x2="0.450789073" y2="34.023574" id="Stroke-97" stroke="#FFFFFF" stroke-width="0.665953868" mask="url(#mask-8)"></line>
                </g>
                <line x1="426.966297" y1="39.484305" x2="426.966297" y2="75.0715551" id="Stroke-99" stroke="#FFFFFF" stroke-width="0.656880927"></line>
                <g id="编组" transform="translate(435.047520, 39.687312)">
                    <mask id="mask-10" fill="white">
                        <use xlink:href="#path-9"></use>
                    </mask>
                    <g id="Clip-102"></g>
                    <line x1="0.62489881" y1="0.0572956223" x2="0.62489881" y2="35.3846059" id="Stroke-101" stroke="#DD1920" stroke-width="0.656880927" mask="url(#mask-10)"></line>
                </g>
                <line x1="444.378994" y1="62.3174951" x2="444.378994" y2="75.0717819" id="Stroke-103" stroke="#FFFFFF" stroke-width="0.665953868"></line>
                <line x1="453.085116" y1="37.9000788" x2="453.085116" y2="75.0714643" id="Stroke-105" stroke="#FFFFFF" stroke-width="0.684553397"></line>
                <g id="编组" transform="translate(461.359049, 43.316488)">
                    <mask id="mask-12" fill="white">
                        <use xlink:href="#path-11"></use>
                    </mask>
                    <g id="Clip-108"></g>
                    <line x1="0.432643191" y1="0.0109782586" x2="0.432643191" y2="31.7553842" id="Stroke-107" stroke="#DD1920" stroke-width="0.712225867" mask="url(#mask-12)"></line>
                </g>
                <g id="编组" transform="translate(469.978343, 14.283077)">
                    <mask id="mask-14" fill="white">
                        <use xlink:href="#path-13"></use>
                    </mask>
                    <g id="Clip-110"></g>
                    <line x1="0.519471236" y1="0.380246956" x2="0.519471236" y2="60.7887953" id="Stroke-109" stroke="#FFFFFF" stroke-width="0.748517631" mask="url(#mask-14)"></line>
                </g>
                <line x1="479.20439" y1="10.8394426" x2="479.20439" y2="75.0717819" id="Stroke-111" stroke="#FFFFFF" stroke-width="0.794335983"></line>
                <line x1="487.910512" y1="40.142184" x2="487.910512" y2="75.0716458" id="Stroke-113" stroke="#FFFFFF" stroke-width="0.848319981"></line>
                <line x1="496.617087" y1="24.6958195" x2="496.617087" y2="75.0715097" id="Stroke-115" stroke="#DD1920" stroke-width="0.910923274"></line>
                <g id="编组" transform="translate(504.909165, 14.736724)">
                    <mask id="mask-16" fill="white">
                        <use xlink:href="#path-15"></use>
                    </mask>
                    <g id="Clip-118"></g>
                    <line x1="0.414043662" y1="0.236486207" x2="0.414043662" y2="60.3351936" id="Stroke-117" stroke="#FFFFFF" stroke-width="0.981692214" mask="url(#mask-16)"></line>
                </g>
                <line x1="514.029785" y1="58.3620558" x2="514.029785" y2="75.0716912" id="Stroke-119" stroke="#FFFFFF" stroke-width="1.06017315"></line>
                <line x1="522.73636" y1="20.6570906" x2="522.73636" y2="75.0716004" id="Stroke-121" stroke="#FFFFFF" stroke-width="1.14681974"></line>
                <line x1="531.442482" y1="57.630187" x2="531.442482" y2="75.0715551" id="Stroke-123" stroke="#DD1920" stroke-width="1.24027103"></line>
                <line x1="540.149058" y1="60.8013159" x2="540.149058" y2="75.0716912" id="Stroke-125" stroke="#DD1920" stroke-width="1.34098068"></line>
                <line x1="548.85518" y1="12.3135687" x2="548.85518" y2="75.0715551" id="Stroke-127" stroke="#DD1920" stroke-width="1.44804138"></line>
                <line x1="557.561756" y1="45.9204225" x2="557.561756" y2="75.0717819" id="Stroke-129" stroke="#FFFFFF" stroke-width="1.5609995"></line>
                <g id="编组" transform="translate(565.697870, 32.882606)">
                    <polygon id="Clip-132" points="0.343183993 0.104021268 0.796831041 0.104021268 0.796831041 42.1891756 0.343183993 42.1891756"></polygon>
                    <line x1="0.570007517" y1="0.104021268" x2="0.570007517" y2="42.1893116" id="Stroke-131" stroke="#FFFFFF" stroke-width="1.67940138"></line>
                </g>
                <g id="编组" transform="translate(574.317164, 66.906135)">
                    <polygon id="Clip-134" points="0.430465685 0.0218204231 0.884112734 0.0218204231 0.884112734 8.16564688 0.430465685 8.16564688"></polygon>
                    <line x1="0.657289209" y1="0.0218204231" x2="0.657289209" y2="8.16569225" id="Stroke-133" stroke="#FFFFFF" stroke-width="1.80324702"></line>
                </g>
                <g id="编组" transform="translate(583.390105, 11.107548)">
                    <polygon id="Clip-136" points="0.063646681 0.0667768456 0.51729373 0.0667768456 0.51729373 63.9642339 0.063646681 63.9642339"></polygon>
                    <line x1="0.290470205" y1="0.0667768456" x2="0.290470205" y2="63.9643246" id="Stroke-135" stroke="#FFFFFF" stroke-width="1.93162913"></line>
                </g>
                <line x1="592.387105" y1="54.032902" x2="592.387105" y2="75.0716912" id="Stroke-137" stroke="#FFFFFF" stroke-width="2.06409407"></line>
                <g id="编组" transform="translate(600.628693, 46.945665)">
                    <polygon id="Clip-140" points="0.237711054 0.419668885 0.691358103 0.419668885 0.691358103 28.126117 0.237711054 28.126117"></polygon>
                    <line x1="0.464534578" y1="0.419668885" x2="0.464534578" y2="28.1261624" id="Stroke-139" stroke="#FFFFFF" stroke-width="2.20018819"></line>
                </g>
                <g id="编组" transform="translate(609.247987, 12.468489)">
                    <mask id="mask-18" fill="white">
                        <use xlink:href="#path-17"></use>
                    </mask>
                    <g id="Clip-142"></g>
                    <line x1="0.55181627" y1="0.182865125" x2="0.55181627" y2="62.6033381" id="Stroke-141" stroke="#FFFFFF" stroke-width="2.33900418"></line>
                </g>
                <line x1="618.505925" y1="14.9209051" x2="618.505925" y2="75.0717819" id="Stroke-143" stroke="#DD1920" stroke-width="2.48054206"></line>
                <line x1="627.212501" y1="44.6046646" x2="627.212501" y2="75.0716004" id="Stroke-145" stroke="#FFFFFF" stroke-width="2.62434818"></line>
                <line x1="635.918623" y1="35.022278" x2="635.918623" y2="75.0716004" id="Stroke-147" stroke="#FFFFFF" stroke-width="2.76906159"></line>
                <line x1="644.625198" y1="58.6150094" x2="644.625198" y2="75.0715097" id="Stroke-149" stroke="#FFFFFF" stroke-width="2.91422864"></line>
                <g id="编组" transform="translate(652.798103, 48.760253)">
                    <polygon id="Clip-152" points="0.306393217 0.126612891 0.760040266 0.126612891 0.760040266 26.3115288 0.306393217 26.3115288"></polygon>
                    <line x1="0.533216741" y1="0.126612891" x2="0.533216741" y2="26.3115742" id="Stroke-151" stroke="#DD1920" stroke-width="3.05984935"></line>
                </g>
                <g id="编组" transform="translate(661.417397, 0.220019)">
                    <mask id="mask-20" fill="white">
                        <use xlink:href="#path-19"></use>
                    </mask>
                    <g id="Clip-154"></g>
                    <line x1="0.620498434" y1="0.370266721" x2="0.620498434" y2="74.8518538" id="Stroke-153" stroke="#DD1920" stroke-width="3.2050164"></line>
                </g>
                <g id="编组" transform="translate(670.490338, 56.925900)">
                    <polygon id="Clip-156" points="0.0268559053 0.408373073 0.480502954 0.408373073 0.480502954 18.145882 0.0268559053 18.145882"></polygon>
                    <line x1="0.25367943" y1="0.408373073" x2="0.25367943" y2="18.1459727" id="Stroke-155" stroke="#FFFFFF" stroke-width="3.34927616"></line>
                </g>
                <line x1="679.450593" y1="54.4666339" x2="679.450593" y2="75.0717365" id="Stroke-157" stroke="#FFFFFF" stroke-width="3.49172134"></line>
                <line x1="688.156715" y1="24.6552635" x2="688.156715" y2="75.0717819" id="Stroke-159" stroke="#FFFFFF" stroke-width="3.63235192"></line>
                <g id="编组" transform="translate(696.348220, 2.941901)">
                    <mask id="mask-22" fill="white">
                        <use xlink:href="#path-21"></use>
                    </mask>
                    <g id="Clip-162"></g>
                    <line x1="0.515070859" y1="0.350759898" x2="0.515070859" y2="72.1299715" id="Stroke-161" stroke="#FFFFFF" stroke-width="3.76980698" mask="url(#mask-22)"></line>
                </g>
                <line x1="705.569867" y1="5.02441326" x2="705.569867" y2="75.0716004" id="Stroke-163" stroke="#FFFFFF" stroke-width="3.9040865"></line>
                <line x1="714.275989" y1="34.1176151" x2="714.275989" y2="75.0715097" id="Stroke-165" stroke="#FFFFFF" stroke-width="4.03473685"></line>
                <line x1="722.982519" y1="39.0052084" x2="722.982519" y2="75.0715097" id="Stroke-167" stroke="#FFFFFF" stroke-width="4.16085073"></line>
                <line x1="731.688686" y1="15.9254611" x2="731.688686" y2="75.0715097" id="Stroke-169" stroke="#DD1920" stroke-width="4.28197449"></line>
                <line x1="740.395216" y1="65.61002" x2="740.395216" y2="75.0717365" id="Stroke-171" stroke="#DD1920" stroke-width="4.39765449"></line>
                <line x1="749.101338" y1="20.913129" x2="749.101338" y2="75.0717819" id="Stroke-173" stroke="#FFFFFF" stroke-width="4.50789073"></line>
                <line x1="757.807914" y1="18.6730198" x2="757.807914" y2="75.0717819" id="Stroke-175" stroke="#DD1920" stroke-width="4.6117759"></line>
                <g id="编组" transform="translate(766.209866, 31.521665)">
                    <polygon id="Clip-178" points="0.0773468218 0.192391713 0.530993871 0.192391713 0.530993871 43.5501167 0.0773468218 43.5501167"></polygon>
                    <line x1="0.304170346" y1="0.192391713" x2="0.304170346" y2="43.5501621" id="Stroke-177" stroke="#DD1920" stroke-width="4.70885637"></line>
                </g>
                <line x1="775.220612" y1="28.2979585" x2="775.220612" y2="75.0716912" id="Stroke-179" stroke="#FFFFFF" stroke-width="4.79867848"></line>
                <line x1="783.926734" y1="30.4600857" x2="783.926734" y2="75.0717365" id="Stroke-181" stroke="#DD1920" stroke-width="4.88124225"></line>
                <g id="编组" transform="translate(792.067747, 35.150842)">
                    <polygon id="Clip-184" points="0.338738251 0.124390021 0.7923853 0.124390021 0.7923853 39.9209403 0.338738251 39.9209403"></polygon>
                    <line x1="0.565561776" y1="0.124390021" x2="0.565561776" y2="39.921031" id="Stroke-183" stroke="#FFFFFF" stroke-width="4.95609401"></line>
                </g>
                <line x1="801.339431" y1="42.5289118" x2="801.339431" y2="75.0717365" id="Stroke-185" stroke="#FFFFFF" stroke-width="5.02278013"></line>
                <line x1="810.046007" y1="8.41392791" x2="810.046007" y2="75.0714643" id="Stroke-187" stroke="#DD1920" stroke-width="5.0813006"></line>
                <line x1="818.752129" y1="30.3573347" x2="818.752129" y2="75.0715097" id="Stroke-189" stroke="#FFFFFF" stroke-width="5.13120177"></line>
                <g id="编组" transform="translate(826.998570, 26.985195)">
                    <polygon id="Clip-192" points="0.233310677 0.313107193 0.686957726 0.313107193 0.686957726 48.0865872 0.233310677 48.0865872"></polygon>
                    <line x1="0.460134202" y1="0.313107193" x2="0.460134202" y2="48.0866779" id="Stroke-191" stroke="#DD1920" stroke-width="5.17203"></line>
                </g>
                <line x1="836.164826" y1="50.4416051" x2="836.164826" y2="75.0714643" id="Stroke-193" stroke="#FFFFFF" stroke-width="5.20423895"></line>
                <g id="编组" transform="translate(844.237158, 5.210136)">
                    <polygon id="Clip-196" points="0.407420415 0.409235003 0.861067464 0.409235003 0.861067464 69.8616455 0.407420415 69.8616455"></polygon>
                    <line x1="0.634243939" y1="0.409235003" x2="0.634243939" y2="69.8616909" id="Stroke-195" stroke="#FFFFFF" stroke-width="5.22737494"></line>
                </g>
                <line x1="853.577524" y1="60.5514471" x2="853.577524" y2="75.0717819" id="Stroke-197" stroke="#FFFFFF" stroke-width="5.24098436"></line>
                <g id="编组" transform="translate(861.929393, 34.697195)">
                    <mask id="mask-24" fill="white">
                        <use xlink:href="#path-23"></use>
                    </mask>
                    <g id="Clip-200"></g>
                    <line x1="0.354706628" y1="0.428288179" x2="0.354706628" y2="40.3746327" id="Stroke-199" stroke="#DD1920" stroke-width="5.24597447"></line>
                </g>
            </g>
        </g>
    </g>
</svg>