<?xml version="1.0" encoding="UTF-8"?>
<svg width="12px" height="12px" viewBox="0 0 12 12" version="1.1" xmlns="http://www.w3.org/2000/svg" xmlns:xlink="http://www.w3.org/1999/xlink">
    <title>000-Icon图标/面性24px/52备份 4</title>
    <g id="页面-1" stroke="none" stroke-width="1" fill="none" fill-rule="evenodd">
        <g id="02节点" transform="translate(-1653.000000, -401.000000)" fill="#FFFFFF" fill-rule="nonzero">
            <g id="编组-27" transform="translate(40.000000, 224.000000)">
                <g id="编组-25备份" transform="translate(0.000000, 124.000000)">
                    <g id="编组-5" transform="translate(1595.000000, 28.000000)">
                        <g id="000-Icon图标/面性24px/52备份-4" transform="translate(18.000000, 25.000000)">
                            <g id="编组" transform="translate(0.666667, 0.000000)">
                                <path d="M9.81563609,5.26456361 C9.35267751,4.17580621 9.56948225,3.49036243 9.5789497,3.46574704 C9.62613657,3.33138971 9.59271012,3.181889 9.49279585,3.0804216 C9.39166646,2.97621794 9.24205358,2.93492043 9.10178994,2.97249261 C9.06676035,2.98196006 8.2260503,3.21485947 7.76309172,4.2004216 C7.64569526,4.44846893 7.55480769,4.70977071 7.48380178,4.9568713 C7.40359871,4.77056749 7.33281892,4.58034681 7.27173077,4.38693047 C6.70841716,2.52184171 7.41374261,0.540303245 7.41942308,0.520421599 C7.46483105,0.395999767 7.44067279,0.256819322 7.35599113,0.154977812 C7.26864899,0.051097344 7.13473075,-0.0016151516 7.0000148,0.0148594712 C6.89492603,0.0281139062 4.42013314,0.365155325 3.41184911,3.19592456 C3.04451183,4.22693047 3.01137573,5.28065828 3.07007397,5.99355769 C2.85232249,5.79758136 2.67244083,5.53627959 2.51054733,5.17935651 C2.26818047,4.649179 2.16214496,3.74503698 2.16025148,3.73651627 C2.14062777,3.58093342 2.02931707,3.45244052 1.8781213,3.41083579 C1.72612637,3.36840692 1.56338525,3.41919401 1.4625,3.54053994 C1.41421597,3.59923816 0.289482248,5.01083579 0.0698372837,6.44610207 C-0.345784014,9.14811391 1.42368344,11.425037 4.3425,11.8681139 C7.28403846,12.3140311 9.7200148,10.6761612 10.1346894,7.97414941 C10.3060503,6.8560429 10.2350444,6.24823225 9.81563609,5.26456361 L9.81563609,5.26456361 Z" id="路径"></path>
                            </g>
                        </g>
                    </g>
                </g>
            </g>
        </g>
    </g>
</svg>