<?xml version="1.0" encoding="UTF-8"?>
<svg width="102px" height="102px" viewBox="0 0 102 102" version="1.1" xmlns="http://www.w3.org/2000/svg" xmlns:xlink="http://www.w3.org/1999/xlink">
    <title>1.圈1</title>
    <g id="页面-1" stroke="none" stroke-width="1" fill="none" fill-rule="evenodd">
        <g id="01首页备份-2" transform="translate(-31.000000, -191.000000)">
            <g id="编组-6" transform="translate(2.000000, 30.000000)">
                <g id="1.圈1" transform="translate(30.000000, 162.000000)">
                    <path d="M99.8181275,50.0173307 C99.8181275,77.5073705 77.5073705,99.8181275 50.0173307,99.8181275 C22.5141434,99.8181275 0.216533865,77.5073705 0.216533865,50.0173307 C0.216533865,22.5141434 22.5141434,0.216533865 50.0173307,0.216533865 C77.5073705,0.216533865 99.8181275,22.5141434 99.8181275,50.0173307 Z" id="Stroke-1" stroke="#FFFFFF" stroke-width="0.5" opacity="0.800000012"></path>
                    <path d="M49.9001992,50.1332669 L16.2380478,52.9256972 C14.6962151,34.3356574 28.5169323,18.0141434 47.1081673,16.4719124 C56.0711155,15.7284861 64.9611554,18.5906375 71.8081673,24.4241036 L49.9001992,50.1332669 Z" id="Stroke-19" stroke="#FFFFFF" stroke-width="0.5" opacity="0.5" stroke-linecap="round"></path>
                    <path d="M49.9001992,50.1332669 L25.0834661,60.3810757 C19.424502,46.6747012 25.948008,30.9762948 39.6539841,25.3173307 C43.302988,23.8105578 47.2400398,23.1268924 51.1850598,23.3157371 L49.9001992,50.1332669 Z" id="Stroke-17" stroke="#FFFFFF" stroke-width="0.537051793" opacity="0.300000012" stroke-linecap="round"></path>
                    <path d="M49.9001992,50.1332669 L37.3316733,46.8468127 C39.1472112,39.9053785 46.2460159,35.7496016 53.1870518,37.5651394 C58.2400398,38.8866534 62.0093625,43.1045817 62.7575697,48.2727092 L49.9001992,50.1332669 Z" id="Stroke-13" stroke="#FFFFFF" stroke-width="0.5" opacity="0.5" stroke-linecap="round"></path>
                    <path d="M49.9001992,50.1332669 L66.5858566,39.251992 C72.5966135,48.4671315 69.9982072,60.8089641 60.7826693,66.8197211 C51.5679283,72.8288845 39.2249004,70.2300797 33.2149402,61.0165339 C27.2049801,51.8013944 29.8033865,39.4587649 39.0185259,33.4488048 C42.6001992,31.1129482 46.8384462,29.9910359 51.1065737,30.2503984 L49.9001992,50.1332669 Z" id="Stroke-15" stroke="#FFFFFF" stroke-width="0.5" opacity="0.300000012" stroke-linecap="round"></path>
                    <path d="M49.9001992,50.1332669 L15.6707171,28.102988 C27.8380478,9.19860558 53.0260956,3.737251 71.9312749,15.9045817 C90.273506,27.7093625 96.0503984,51.8743028 85.0304781,70.6982072 L49.9001992,50.1332669 Z" id="Stroke-21" stroke="#FFFFFF" stroke-width="0.5" opacity="0.600000024" stroke-linecap="round"></path>
                    <path d="M37.1854582,46.6304781 C39.2802789,39.7679283 46.5416335,35.9033865 53.4037849,37.9986056 C60.2671315,40.0934263 64.1312749,47.3547809 62.035259,54.2181275 C61.9296813,54.5643426 61.8101594,54.9057769 61.6750996,55.2416335" id="Stroke-3" stroke="#DD1920" stroke-width="1.24661355" stroke-linecap="round"></path>
                    <path d="M33.2589641,61.8014343 C26.9756972,52.7699602 29.2023904,40.3560159 38.2330677,34.0723506 C41.7087649,31.6544223 45.8641434,30.4062151 50.0972112,30.5094024" id="Stroke-5" stroke="#DD1920" stroke-linecap="round"></path>
                    <path d="M37.300239,26.563506 C50.4779283,19.7647012 66.672749,24.9356175 73.4711554,38.1133068 C80.2699602,51.2901992 75.0994422,67.4850199 61.9209562,74.2838247 C53.9165737,78.4149004 44.374741,78.2555378 36.5121912,73.8611155" id="Stroke-7" stroke="#DD1920" stroke-width="1.90079681" stroke-linecap="round"></path>
                    <path d="M16.0014343,53.7936255 C14.1400797,35.2322709 27.6783267,18.6756972 46.2400797,16.814741 C60.1819124,15.4163347 73.5404781,22.7713147 79.812988,35.3" id="Stroke-9" stroke="#DD1920" stroke-width="1.3" stroke-linecap="round"></path>
                    <path d="M20.1341434,22.3498805 C35.6389243,6.0701992 61.4050598,5.44231076 77.6859363,20.9470916 C93.9648207,36.4518725 94.5923108,62.2188048 79.0871315,78.4984861 C73.3433068,84.5279681 65.8895219,88.6522709 57.7289641,90.3136255" id="Stroke-11" stroke="#DD1920" stroke-width="1.62749004" stroke-linecap="round"></path>
                    <path d="M52.6155378,50.0173307 C52.6155378,51.4515936 51.4513944,52.6153386 50.0175299,52.6153386 C48.5824701,52.6153386 47.4191235,51.4515936 47.4191235,50.0173307 C47.4191235,48.5822709 48.5824701,47.4193227 50.0175299,47.4193227 C51.4513944,47.4193227 52.6155378,48.5822709 52.6155378,50.0173307" id="Fill-23" fill="#FFFFFF"></path>
                </g>
            </g>
        </g>
    </g>
</svg>