<?xml version="1.0" encoding="UTF-8"?>
<svg width="497px" height="45px" viewBox="0 0 497 45" version="1.1" xmlns="http://www.w3.org/2000/svg" xmlns:xlink="http://www.w3.org/1999/xlink">
    <title>地图配图3</title>
    <g id="页面-1" stroke="none" stroke-width="1" fill="none" fill-rule="evenodd">
        <g id="01首页备份" transform="translate(-1.000000, -1931.000000)">
            <g id="地图配图3" transform="translate(1.000000, 1931.000000)">
                <g id="编组" transform="translate(0.000000, 0.056648)" fill="#FFFFFF">
                    <polygon id="Fill-1" opacity="0.100000001" points="0 10.9869221 10.7825179 10.9869221 10.7825179 0.204404211 0 0.204404211"></polygon>
                    <polygon id="Fill-3" opacity="0.200000003" points="0 27.16096 10.7825179 27.16096 10.7825179 16.3781811 0 16.3781811"></polygon>
                    <polygon id="Fill-5" opacity="0.300000012" points="0 43.3347368 10.7825179 43.3347368 10.7825179 32.5522189 0 32.5522189"></polygon>
                    <polygon id="Fill-7" opacity="0.400000006" points="16.1740379 10.9869221 26.9565558 10.9869221 26.9565558 0.204404211 16.1740379 0.204404211"></polygon>
                    <polygon id="Fill-9" opacity="0.100000001" points="16.1740379 27.16096 26.9565558 27.16096 26.9565558 16.3781811 16.1740379 16.3781811"></polygon>
                    <polygon id="Fill-11" opacity="0.5" points="16.1740379 43.3347368 26.9565558 43.3347368 26.9565558 32.5522189 16.1740379 32.5522189"></polygon>
                    <polygon id="Fill-13" opacity="0.300000012" points="32.3478147 10.9869221 43.1303326 10.9869221 43.1303326 0.204404211 32.3478147 0.204404211"></polygon>
                    <polygon id="Fill-15" points="32.3478147 27.16096 43.1303326 27.16096 43.1303326 16.3781811 32.3478147 16.3781811"></polygon>
                    <polygon id="Fill-17" opacity="0.300000012" points="32.3478147 43.3347368 43.1303326 43.3347368 43.1303326 32.5522189 32.3478147 32.5522189"></polygon>
                    <polygon id="Fill-19" opacity="0.100000001" points="48.5218526 10.9869221 59.3043705 10.9869221 59.3043705 0.204404211 48.5218526 0.204404211"></polygon>
                </g>
                <polygon id="Fill-21" fill="#DD1920" points="48.5218526 27.2176084 59.3043705 27.2176084 59.3043705 16.4348295 48.5218526 16.4348295"></polygon>
                <g id="编组" transform="translate(48.294737, 0.056648)" fill="#FFFFFF">
                    <polygon id="Fill-22" opacity="0.600000024" points="0.227115789 43.3347368 11.0096337 43.3347368 11.0096337 32.5522189 0.227115789 32.5522189"></polygon>
                    <polygon id="Fill-24" opacity="0.200000003" points="16.4008926 10.9869221 27.1834105 10.9869221 27.1834105 0.204404211 16.4008926 0.204404211"></polygon>
                    <polygon id="Fill-26" opacity="0.100000001" points="16.4008926 27.16096 27.1834105 27.16096 27.1834105 16.3781811 16.4008926 16.3781811"></polygon>
                    <polygon id="Fill-28" opacity="0.300000012" points="16.4008926 43.3347368 27.1834105 43.3347368 27.1834105 32.5522189 16.4008926 32.5522189"></polygon>
                    <polygon id="Fill-30" opacity="0.100000001" points="32.5749305 10.9869221 43.3574484 10.9869221 43.3574484 0.204404211 32.5749305 0.204404211"></polygon>
                    <polygon id="Fill-32" opacity="0.100000001" points="32.5749305 27.16096 43.3574484 27.16096 43.3574484 16.3781811 32.5749305 16.3781811"></polygon>
                    <polygon id="Fill-34" opacity="0.5" points="32.5749305 43.3347368 43.3574484 43.3347368 43.3574484 32.5522189 32.5749305 32.5522189"></polygon>
                    <polygon id="Fill-36" opacity="0.5" points="48.7487074 10.9869221 59.5312253 10.9869221 59.5312253 0.204404211 48.7487074 0.204404211"></polygon>
                    <polygon id="Fill-38" opacity="0.300000012" points="48.7487074 27.16096 59.5312253 27.16096 59.5312253 16.3781811 48.7487074 16.3781811"></polygon>
                </g>
                <polygon id="Fill-40" fill="#FFFFFF" opacity="0.200000003" points="97.0437053 43.3913853 107.826223 43.3913853 107.826223 32.6088674 97.0437053 32.6088674"></polygon>
                <g id="编组" transform="translate(113.035789, 0.056648)" fill="#FFFFFF">
                    <polygon id="Fill-41" opacity="0.100000001" points="0.181692632 10.9869221 10.9642105 10.9869221 10.9642105 0.204404211 0.181692632 0.204404211"></polygon>
                    <polygon id="Fill-43" opacity="0.300000012" points="0.181692632 27.16096 10.9642105 27.16096 10.9642105 16.3781811 0.181692632 16.3781811"></polygon>
                    <polygon id="Fill-45" opacity="0.300000012" points="0.181692632 43.3347368 10.9642105 43.3347368 10.9642105 32.5522189 0.181692632 32.5522189"></polygon>
                    <polygon id="Fill-47" opacity="0.200000003" points="16.3557305 10.9869221 27.1382484 10.9869221 27.1382484 0.204404211 16.3557305 0.204404211"></polygon>
                    <polygon id="Fill-49" opacity="0.400000006" points="16.3557305 27.16096 27.1382484 27.16096 27.1382484 16.3781811 16.3557305 16.3781811"></polygon>
                    <polygon id="Fill-51" opacity="0.200000003" points="16.3557305 43.3347368 27.1382484 43.3347368 27.1382484 32.5522189 16.3557305 32.5522189"></polygon>
                    <polygon id="Fill-53" opacity="0.800000012" points="32.5295074 10.9869221 43.3120253 10.9869221 43.3120253 0.204404211 32.5295074 0.204404211"></polygon>
                    <polygon id="Fill-55" opacity="0.119999997" points="32.5295074 27.16096 43.3120253 27.16096 43.3120253 16.3781811 32.5295074 16.3781811"></polygon>
                    <polygon id="Fill-57" opacity="0.300000012" points="32.5295074 43.3347368 43.3120253 43.3347368 43.3120253 32.5522189 32.5295074 32.5522189"></polygon>
                </g>
                <polygon id="Fill-59" fill="#FFFFFF" opacity="0.100000001" points="161.739074 11.0433095 172.521853 11.0433095 172.521853 0.260791579 161.739074 0.260791579"></polygon>
                <g id="编组" transform="translate(161.591579, 0.056648)" fill="#FFFFFF">
                    <polygon id="Fill-60" opacity="0.100000001" points="0.147494737 27.16096 10.9302737 27.16096 10.9302737 16.3781811 0.147494737 16.3781811"></polygon>
                    <polygon id="Fill-62" opacity="0.5" points="0.147494737 43.3347368 10.9302737 43.3347368 10.9302737 32.5522189 0.147494737 32.5522189"></polygon>
                    <polygon id="Fill-64" opacity="0.200000003" points="16.3212716 10.9869221 27.1040505 10.9869221 27.1040505 0.204404211 16.3212716 0.204404211"></polygon>
                    <polygon id="Fill-66" opacity="0.5" points="16.3212716 27.16096 27.1040505 27.16096 27.1040505 16.3781811 16.3212716 16.3781811"></polygon>
                    <polygon id="Fill-68" opacity="0.100000001" points="16.3212716 43.3347368 27.1040505 43.3347368 27.1040505 32.5522189 16.3212716 32.5522189"></polygon>
                    <polygon id="Fill-70" opacity="0.400000006" points="32.4955705 10.9869221 43.2780884 10.9869221 43.2780884 0.204404211 32.4955705 0.204404211"></polygon>
                    <polygon id="Fill-72" opacity="0.300000012" points="32.4955705 27.16096 43.2780884 27.16096 43.2780884 16.3781811 32.4955705 16.3781811"></polygon>
                    <polygon id="Fill-74" opacity="0.200000003" points="32.4955705 43.3347368 43.2780884 43.3347368 43.2780884 32.5522189 32.4955705 32.5522189"></polygon>
                    <polygon id="Fill-76" opacity="0.100000001" points="48.6690863 10.9869221 59.4518653 10.9869221 59.4518653 0.204404211 48.6690863 0.204404211"></polygon>
                    <polygon id="Fill-78" opacity="0.5" points="48.6690863 27.16096 59.4518653 27.16096 59.4518653 16.3781811 48.6690863 16.3781811"></polygon>
                </g>
                <polygon id="Fill-80" fill="#DD1920" points="210.260665 43.3913853 221.043444 43.3913853 221.043444 32.6088674 210.260665 32.6088674"></polygon>
                <g id="编组" transform="translate(226.332632, 0.056648)" fill="#FFFFFF">
                    <polygon id="Fill-81" opacity="0.300000012" points="0.102071579 10.9869221 10.8848505 10.9869221 10.8848505 0.204404211 0.102071579 0.204404211"></polygon>
                    <polygon id="Fill-83" opacity="0.100000001" points="0.102071579 27.16096 10.8848505 27.16096 10.8848505 16.3781811 0.102071579 16.3781811"></polygon>
                    <polygon id="Fill-85" opacity="0.300000012" points="0.102071579 43.3347368 10.8848505 43.3347368 10.8848505 32.5522189 0.102071579 32.5522189"></polygon>
                    <polygon id="Fill-87" opacity="0.300000012" points="16.2758484 10.9869221 27.0586274 10.9869221 27.0586274 0.204404211 16.2758484 0.204404211"></polygon>
                    <polygon id="Fill-89" opacity="0.200000003" points="16.2758484 27.16096 27.0586274 27.16096 27.0586274 16.3781811 16.2758484 16.3781811"></polygon>
                    <polygon id="Fill-91" opacity="0.5" points="16.2758484 43.3347368 27.0586274 43.3347368 27.0586274 32.5522189 16.2758484 32.5522189"></polygon>
                    <polygon id="Fill-93" opacity="0.699999988" points="32.4498863 10.9869221 43.2326653 10.9869221 43.2326653 0.204404211 32.4498863 0.204404211"></polygon>
                </g>
                <polygon id="Fill-95" fill="#FFFFFF" opacity="0.100000001" points="258.782518 27.2176084 269.565297 27.2176084 269.565297 16.4348295 258.782518 16.4348295"></polygon>
                <g id="编组" transform="translate(258.703158, 0.056648)" fill="#FFFFFF">
                    <polygon id="Fill-96" opacity="0.300000012" points="0.07936 43.3347368 10.8621389 43.3347368 10.8621389 32.5522189 0.07936 32.5522189"></polygon>
                    <polygon id="Fill-98" opacity="0.300000012" points="16.2531368 10.9869221 27.0359158 10.9869221 27.0359158 0.204404211 16.2531368 0.204404211"></polygon>
                    <polygon id="Fill-100" opacity="0.600000024" points="16.2531368 27.16096 27.0359158 27.16096 27.0359158 16.3781811 16.2531368 16.3781811"></polygon>
                    <polygon id="Fill-102" opacity="0.200000003" points="16.2531368 43.3347368 27.0359158 43.3347368 27.0359158 32.5522189 16.2531368 32.5522189"></polygon>
                    <polygon id="Fill-104" opacity="0.100000001" points="32.4271747 10.9869221 43.2096926 10.9869221 43.2096926 0.204404211 32.4271747 0.204404211"></polygon>
                    <polygon id="Fill-106" opacity="0.300000012" points="32.4271747 27.16096 43.2096926 27.16096 43.2096926 16.3781811 32.4271747 16.3781811"></polygon>
                    <polygon id="Fill-108" opacity="0.100000001" points="32.4271747 43.3347368 43.2096926 43.3347368 43.2096926 32.5522189 32.4271747 32.5522189"></polygon>
                    <polygon id="Fill-110" opacity="0.300000012" points="48.6012126 10.9869221 59.3839916 10.9869221 59.3839916 0.204404211 48.6012126 0.204404211"></polygon>
                    <polygon id="Fill-112" opacity="0.200000003" points="48.6012126 27.16096 59.3839916 27.16096 59.3839916 16.3781811 48.6012126 16.3781811"></polygon>
                    <polygon id="Fill-114" opacity="0.400000006" points="48.6012126 43.3347368 59.3839916 43.3347368 59.3839916 32.5522189 48.6012126 32.5522189"></polygon>
                    <polygon id="Fill-116" opacity="0.100000001" points="64.7752505 10.9869221 75.5577684 10.9869221 75.5577684 0.204404211 64.7752505 0.204404211"></polygon>
                    <polygon id="Fill-118" opacity="0.800000012" points="64.7752505 27.16096 75.5577684 27.16096 75.5577684 16.3781811 64.7752505 16.3781811"></polygon>
                    <polygon id="Fill-120" opacity="0.5" points="64.7752505 43.3347368 75.5577684 43.3347368 75.5577684 32.5522189 64.7752505 32.5522189"></polygon>
                    <polygon id="Fill-122" opacity="0.300000012" points="80.9490274 10.9869221 91.7315453 10.9869221 91.7315453 0.204404211 80.9490274 0.204404211"></polygon>
                    <polygon id="Fill-124" opacity="0.5" points="80.9490274 27.16096 91.7315453 27.16096 91.7315453 16.3781811 80.9490274 16.3781811"></polygon>
                    <polygon id="Fill-126" opacity="0.600000024" points="80.9490274 43.3347368 91.7315453 43.3347368 91.7315453 32.5522189 80.9490274 32.5522189"></polygon>
                    <polygon id="Fill-128" opacity="0.600000024" points="97.1230653 10.9869221 107.905583 10.9869221 107.905583 0.204404211 97.1230653 0.204404211"></polygon>
                    <polygon id="Fill-130" opacity="0.200000003" points="97.1230653 27.16096 107.905583 27.16096 107.905583 16.3781811 97.1230653 16.3781811"></polygon>
                </g>
                <polygon id="Fill-132" fill="#FFFFFF" opacity="0.100000001" points="355.826223 43.3913853 366.608741 43.3913853 366.608741 32.6088674 355.826223 32.6088674"></polygon>
                <g id="编组" transform="translate(372.000000, 0.056648)" fill="#FFFFFF">
                    <polygon id="Fill-133" opacity="0.200000003" points="0 10.9869221 10.7825179 10.9869221 10.7825179 0.204404211 0 0.204404211"></polygon>
                    <polygon id="Fill-135" opacity="0.100000001" points="0 27.16096 10.7825179 27.16096 10.7825179 16.3781811 0 16.3781811"></polygon>
                    <polygon id="Fill-137" opacity="0.5" points="0 43.3347368 10.7825179 43.3347368 10.7825179 32.5522189 0 32.5522189"></polygon>
                </g>
                <polygon id="Fill-139" fill="#DD1920" points="388.174038 11.0433095 398.956556 11.0433095 398.956556 0.260791579 388.174038 0.260791579"></polygon>
                <g id="编组" transform="translate(387.924211, 0.056648)" fill="#FFFFFF">
                    <polygon id="Fill-140" opacity="0.400000006" points="0.249827368 27.16096 11.0323453 27.16096 11.0323453 16.3781811 0.249827368 16.3781811"></polygon>
                    <polygon id="Fill-142" opacity="0.200000003" points="0.249827368 43.3347368 11.0323453 43.3347368 11.0323453 32.5522189 0.249827368 32.5522189"></polygon>
                    <polygon id="Fill-144" opacity="0.200000003" points="16.4236042 10.9869221 27.2061221 10.9869221 27.2061221 0.204404211 16.4236042 0.204404211"></polygon>
                    <polygon id="Fill-146" opacity="0.600000024" points="16.4236042 27.16096 27.2061221 27.16096 27.2061221 16.3781811 16.4236042 16.3781811"></polygon>
                    <polygon id="Fill-148" opacity="0.200000003" points="16.4236042 43.3347368 27.2061221 43.3347368 27.2061221 32.5522189 16.4236042 32.5522189"></polygon>
                    <polygon id="Fill-150" opacity="0.100000001" points="32.5976421 10.9869221 43.38016 10.9869221 43.38016 0.204404211 32.5976421 0.204404211"></polygon>
                    <polygon id="Fill-152" opacity="0.100000001" points="32.5976421 27.16096 43.38016 27.16096 43.38016 16.3781811 32.5976421 16.3781811"></polygon>
                    <polygon id="Fill-154" opacity="0.300000012" points="32.5976421 43.3347368 43.38016 43.3347368 43.38016 32.5522189 32.5976421 32.5522189"></polygon>
                    <polygon id="Fill-156" opacity="0.800000012" points="48.7714189 10.9869221 59.5539368 10.9869221 59.5539368 0.204404211 48.7714189 0.204404211"></polygon>
                    <polygon id="Fill-158" opacity="0.200000003" points="48.7714189 27.16096 59.5539368 27.16096 59.5539368 16.3781811 48.7714189 16.3781811"></polygon>
                    <polygon id="Fill-160" opacity="0.100000001" points="48.7714189 43.3347368 59.5539368 43.3347368 59.5539368 32.5522189 48.7714189 32.5522189"></polygon>
                    <polygon id="Fill-162" opacity="0.400000006" points="64.9454568 10.9869221 75.7279747 10.9869221 75.7279747 0.204404211 64.9454568 0.204404211"></polygon>
                </g>
                <polygon id="Fill-164" fill="#FFFFFF" opacity="0.100000001" points="452.869667 27.2176084 463.652185 27.2176084 463.652185 16.4348295 452.869667 16.4348295"></polygon>
                <g id="编组" transform="translate(452.665263, 0.056648)" fill="#FFFFFF">
                    <polygon id="Fill-165" opacity="0.300000012" points="0.204404211 43.3347368 10.9869221 43.3347368 10.9869221 32.5522189 0.204404211 32.5522189"></polygon>
                    <polygon id="Fill-167" opacity="0.100000001" points="16.3781811 10.9869221 27.1606989 10.9869221 27.1606989 0.204404211 16.3781811 0.204404211"></polygon>
                    <polygon id="Fill-169" opacity="0.200000003" points="16.3781811 27.16096 27.1606989 27.16096 27.1606989 16.3781811 16.3781811 16.3781811"></polygon>
                    <polygon id="Fill-171" opacity="0.5" points="16.3781811 43.3347368 27.1606989 43.3347368 27.1606989 32.5522189 16.3781811 32.5522189"></polygon>
                    <polygon id="Fill-173" opacity="0.300000012" points="32.5522189 10.9869221 43.3347368 10.9869221 43.3347368 0.204404211 32.5522189 0.204404211"></polygon>
                    <polygon id="Fill-175" opacity="0.200000003" points="32.5522189 27.16096 43.3347368 27.16096 43.3347368 16.3781811 32.5522189 16.3781811"></polygon>
                    <polygon id="Fill-177" opacity="0.100000001" points="32.5522189 43.3347368 43.3347368 43.3347368 43.3347368 32.5522189 32.5522189 32.5522189"></polygon>
                </g>
            </g>
        </g>
    </g>
</svg>