<?xml version="1.0" encoding="UTF-8"?>
<svg width="21px" height="28px" viewBox="0 0 21 28" version="1.1" xmlns="http://www.w3.org/2000/svg" xmlns:xlink="http://www.w3.org/1999/xlink">
    <title>3</title>
    <g id="页面-1" stroke="none" stroke-width="1" fill="none" fill-rule="evenodd">
        <g id="01首页" transform="translate(-57.000000, -2510.000000)" fill-rule="nonzero">
            <g id="编组-27备份-2" transform="translate(20.000000, 2307.000000)">
                <g id="编组-27" transform="translate(20.000000, 79.000000)">
                    <g id="编组-25备份-2" transform="translate(0.000000, 118.000000)">
                        <g id="编组" transform="translate(8.000000, 0.000000)">
                            <g id="编组" transform="translate(9.166667, 6.666667)">
                                <path d="M0,16.7029157 C0,22.245783 4.49338174,26.7391647 10.036249,26.7391647 C15.5791163,26.7391647 20.072498,22.245783 20.072498,16.7029157 C20.072498,11.1600484 15.5791163,6.66666667 10.036249,6.66666667 C4.49338174,6.66666667 0,11.1600484 0,16.7029157 Z" id="路径" fill="#CA723E"></path>
                                <path d="M10.3466667,21.1066667 C12.6666667,21.1066667 14.1466667,19.8533333 14.1466667,18.0533333 C14.1466667,16.6266667 13.1066667,15.72 11.6266667,15.4933333 L11.16,15.4266667 L13.68,13.08 L13.68,11.6666667 L7.14666667,11.6666667 L7.16,13.5466667 L10.76,13.5466667 L8.57333333,15.64 L8.57333333,16.9466667 L10.1466667,16.9466667 C11.1866667,16.9466667 11.76,17.3333333 11.76,18.08 C11.76,18.8133333 11.1866667,19.24 10.16,19.24 C9.26666667,19.24 8.38666667,18.84 7.65333333,18.08 L6.66666667,19.96 C7.57333333,20.6533333 8.98666667,21.1066667 10.3466667,21.1066667 Z" id="3" fill="#FFFFFF"></path>
                                <path d="M9.74753742,4.96286447 L9.69710402,4.96286447 C7.62933411,4.96286447 5.56156424,5.51763202 3.7459614,6.52630024 C3.29206069,6.77846731 2.78772658,6.62716707 2.53555951,6.17326636 L0.114755725,1.3316588 C-0.0869779108,0.87775809 0.0643223257,0.37342398 0.518222998,0.121256908 C0.619089835,0.0708235077 0.770390071,0.0203900709 0.921690307,0.0203900709 L6.57023245,0.0203900709 C7.02413316,0.0203900709 7.47803387,0.272557144 7.67976755,0.726457853 L9.74753742,4.96286447 Z M11.1092395,4.96286447 L11.2101064,4.96286447 C13.2778763,4.96286447 15.3456462,5.51763202 17.161249,6.52630024 C17.5647163,6.77846731 18.1194838,6.62716707 18.3716509,6.17326636 L18.3716509,6.12283293 L20.7924547,1.3316588 C20.9941883,0.87775809 20.8428881,0.37342398 20.3889874,0.121256908 C20.2881206,0.0708235077 20.1368203,0.0203900709 19.9855201,0.0203900709 L14.3369779,0.0203900709 C13.8830772,0.0203900709 13.4291765,0.272557144 13.2274429,0.726457853 L11.1092395,4.96286447 Z" id="形状" fill="#CA723E" opacity="0.5"></path>
                            </g>
                        </g>
                    </g>
                </g>
            </g>
        </g>
    </g>
</svg>