<?xml version="1.0" encoding="UTF-8"?>
<svg width="62px" height="12px" viewBox="0 0 62 12" version="1.1" xmlns="http://www.w3.org/2000/svg" xmlns:xlink="http://www.w3.org/1999/xlink">
    <title>WelcometoRosettaNetExplorer备份 2</title>
    <g id="改" stroke="none" stroke-width="1" fill="none" fill-rule="evenodd">
        <g id="01首页" transform="translate(-1332.000000, -155.000000)" fill="#FF6600" fill-rule="nonzero">
            <path d="M1333.75955,166.538462 L1333.75955,161.840659 L1334.36739,161.840659 C1334.77262,161.840659 1335.06588,161.950549 1335.24716,162.17033 C1335.42845,162.39011 1335.51909,162.769231 1335.51909,163.307692 L1335.51909,163.307692 L1335.51919,165.196378 C1335.51972,165.393909 1335.52235,165.56105 1335.52709,165.697802 C1335.53242,165.851648 1335.54309,165.978022 1335.55908,166.076923 C1335.57508,166.175824 1335.59374,166.258242 1335.61507,166.324176 C1335.63639,166.39011 1335.65772,166.461538 1335.67905,166.538462 L1335.67905,166.538462 L1337.47059,166.538462 C1337.38528,166.318681 1337.33196,166.101648 1337.31063,165.887363 C1337.2893,165.673077 1337.27864,165.423077 1337.27864,165.137363 L1337.27864,165.137363 L1337.27864,163.357143 C1337.27864,162.752747 1337.19599,162.239011 1337.0307,161.815934 C1336.86541,161.392857 1336.55882,161.087912 1336.11094,160.901099 C1336.87874,160.527473 1337.26264,159.747253 1337.26264,158.56044 L1337.26264,158.56044 L1337.26264,157.653846 C1337.26264,156.763736 1337.05736,156.098901 1336.6468,155.659341 C1336.23624,155.21978 1335.57241,155 1334.65531,155 L1334.65531,155 L1332,155 L1332,166.538462 L1333.75955,166.538462 Z M1334.5429,160.538462 L1333.82353,160.538462 L1333.82353,156.846154 L1334.7102,156.846154 C1335.03364,156.846154 1335.27064,156.94347 1335.42121,157.138104 C1335.57178,157.332737 1335.64706,157.647585 1335.64706,158.082648 L1335.64706,158.082648 L1335.64706,159.267621 C1335.64706,159.748479 1335.54947,160.080501 1335.35429,160.263685 C1335.15911,160.446869 1334.88865,160.538462 1334.5429,160.538462 L1334.5429,160.538462 Z M1341.11765,167 C1342.00211,167 1342.67911,166.74581 1343.14864,166.23743 C1343.61818,165.72905 1343.85294,165 1343.85294,164.050279 L1343.85294,164.050279 L1343.85294,157.949721 C1343.85294,157 1343.61818,156.27095 1343.14864,155.76257 C1342.67911,155.25419 1342.00211,155 1341.11765,155 C1340.23318,155 1339.55618,155.25419 1339.08665,155.76257 C1338.61712,156.27095 1338.38235,157 1338.38235,157.949721 L1338.38235,157.949721 L1338.38235,164.050279 C1338.38235,165 1338.61712,165.72905 1339.08665,166.23743 C1339.55618,166.74581 1340.23318,167 1341.11765,167 Z M1341.11765,165.153846 C1340.84039,165.153846 1340.61911,165.066041 1340.45382,164.890429 C1340.28853,164.714818 1340.20588,164.411747 1340.20588,163.981216 L1340.20588,163.981216 L1340.20588,157.557245 C1340.20588,157.126714 1340.28853,156.823643 1340.45382,156.648032 C1340.61911,156.472421 1340.84039,156.384615 1341.11765,156.384615 C1341.39491,156.384615 1341.61619,156.472421 1341.78148,156.648032 C1341.94677,156.823643 1342.02941,157.126714 1342.02941,157.557245 L1342.02941,157.557245 L1342.02941,163.981216 C1342.02941,164.411747 1341.94677,164.714818 1341.78148,164.890429 C1341.61619,165.066041 1341.39491,165.153846 1341.11765,165.153846 Z M1347.5,167 C1348.40065,167 1349.08169,166.74581 1349.54313,166.23743 C1350.00457,165.72905 1350.23529,165 1350.23529,164.050279 C1350.23529,163.49162 1350.14634,163.005587 1349.96844,162.592179 C1349.79053,162.178771 1349.56815,161.810056 1349.30129,161.486034 C1349.03443,161.162011 1348.74812,160.863128 1348.44234,160.589385 C1348.13657,160.315642 1347.85025,160.041899 1347.58339,159.768156 C1347.31654,159.494413 1347.09415,159.203911 1346.91625,158.896648 C1346.73834,158.589385 1346.64939,158.234637 1346.64939,157.832402 C1346.64939,157.407821 1346.73,157.108939 1346.89123,156.935754 C1347.05246,156.76257 1347.27762,156.675978 1347.56671,156.675978 C1347.85581,156.675978 1348.08097,156.76257 1348.2422,156.935754 C1348.40343,157.108939 1348.48404,157.407821 1348.48404,157.832402 L1348.48404,157.832402 L1348.48404,158.318436 L1350.21862,158.318436 L1350.21862,157.949721 C1350.21862,157 1349.99345,156.27095 1349.54313,155.76257 C1349.09281,155.25419 1348.41732,155 1347.51668,155 C1346.61603,155 1345.94055,155.25419 1345.49023,155.76257 C1345.0399,156.27095 1344.81474,157 1344.81474,157.949721 C1344.81474,158.50838 1344.90369,158.994413 1345.0816,159.407821 C1345.25951,159.821229 1345.48189,160.189944 1345.74874,160.513966 C1346.0156,160.837989 1346.30192,161.136872 1346.60769,161.410615 C1346.91347,161.684358 1347.19978,161.958101 1347.46664,162.231844 C1347.7335,162.505587 1347.95588,162.796089 1348.13379,163.103352 C1348.31169,163.410615 1348.40065,163.765363 1348.40065,164.167598 C1348.40065,164.592179 1348.31447,164.888268 1348.14213,165.055866 C1347.96978,165.223464 1347.73906,165.307263 1347.44996,165.307263 C1347.16087,165.307263 1346.93015,165.223464 1346.7578,165.055866 C1346.58546,164.888268 1346.49928,164.592179 1346.49928,164.167598 L1346.49928,164.167598 L1346.49928,163.329609 L1344.76471,163.329609 L1344.76471,164.050279 C1344.76471,165 1344.99543,165.72905 1345.45687,166.23743 C1345.91831,166.74581 1346.59935,167 1347.5,167 Z M1356.16176,166.538462 L1356.16176,164.89011 L1352.98578,164.89011 L1352.98578,161.510989 L1355.50985,161.510989 L1355.50985,159.862637 L1352.98578,159.862637 L1352.98578,156.648352 L1356.16176,156.648352 L1356.16176,155 L1351.14706,155 L1351.14706,166.538462 L1356.16176,166.538462 Z M1360.69377,166.538462 L1360.69377,156.648352 L1362.54412,156.648352 L1362.54412,155 L1357.07353,155 L1357.07353,156.648352 L1358.92388,156.648352 L1358.92388,166.538462 L1360.69377,166.538462 Z M1366.62024,166.538462 L1366.62024,156.648352 L1368.47059,156.648352 L1368.47059,155 L1363,155 L1363,156.648352 L1364.85035,156.648352 L1364.85035,166.538462 L1366.62024,166.538462 Z M1370.14492,166.538462 L1370.45989,164.445055 L1372.69786,164.445055 L1373.01283,166.538462 L1374.85294,166.538462 L1372.99626,155 L1370.32727,155 L1368.47059,166.538462 L1370.14492,166.538462 Z M1372.57353,163.307692 L1370.75,163.307692 L1371.66176,157.307692 L1372.57353,163.307692 Z M1377.44585,166.538462 L1377.44585,158.181319 L1379.77229,166.538462 L1381.69118,166.538462 L1381.69118,155 L1380.02701,155 L1380.02701,161.906593 L1378.10812,155 L1375.76471,155 L1375.76471,166.538462 L1377.44585,166.538462 Z M1388.07353,166.538462 L1388.07353,164.89011 L1384.89755,164.89011 L1384.89755,161.510989 L1387.42162,161.510989 L1387.42162,159.862637 L1384.89755,159.862637 L1384.89755,156.648352 L1388.07353,156.648352 L1388.07353,155 L1383.05882,155 L1383.05882,166.538462 L1388.07353,166.538462 Z M1392.14965,166.538462 L1392.14965,156.648352 L1394,156.648352 L1394,155 L1388.52941,155 L1388.52941,156.648352 L1390.37976,156.648352 L1390.37976,166.538462 L1392.14965,166.538462 Z" id="WelcometoRosettaNetExplorer备份-2"></path>
        </g>
    </g>
</svg>