<?xml version="1.0" encoding="UTF-8"?>
<svg width="71px" height="71px" viewBox="0 0 71 71" version="1.1" xmlns="http://www.w3.org/2000/svg" xmlns:xlink="http://www.w3.org/1999/xlink">
    <title>地图配图6</title>
    <g id="页面-1" stroke="none" stroke-width="1" fill="none" fill-rule="evenodd">
        <g id="01首页备份" transform="translate(-527.000000, -1096.000000)" stroke="#FFFFFF">
            <g id="地图配图6" transform="translate(528.000000, 1096.000000)">
                <g id="编组" transform="translate(0.000000, 0.406961)">
                    <path d="M12.4166961,34.796451 C12.4166961,22.5910588 22.311402,12.6963529 34.5174804,12.6963529 C46.7228725,12.6963529 56.6175784,22.5910588 56.6175784,34.796451 C56.6175784,47.0018431 46.7228725,56.896549 34.5174804,56.896549 C22.311402,56.896549 12.4166961,47.0018431 12.4166961,34.796451 Z" id="Stroke-1" stroke-width="17.9131373" opacity="0.094023205"></path>
                    <path d="M34.5172059,56.8966176 C28.4141667,56.8966176 22.8889706,54.4232843 18.890049,50.4236765 C14.8904412,46.4240686 12.4164216,40.8988725 12.4164216,34.7965196 C12.4164216,28.6934804 14.8904412,23.1689706 18.890049,19.1693627 C22.8889706,15.1697549 28.4141667,12.6964216 34.5172059,12.6964216 C40.6202451,12.6964216 46.1447549,15.1697549 50.1443627,19.1693627 C54.1439706,23.1689706 56.6173039,28.6934804 56.6173039,34.7965196" id="Stroke-3" stroke-width="17.9131373" opacity="0.155036563"></path>
                    <path d="M34.5168627,69.1101765 C15.5969608,69.1101765 0.203137255,53.7170392 0.203137255,34.796451 C0.203137255,15.8758627 15.5969608,0.48272549 34.5168627,0.48272549 C53.4381373,0.48272549 68.8305882,15.8758627 68.8305882,34.796451 C68.8305882,53.7170392 53.4381373,69.1101765 34.5168627,69.1101765 Z" id="Stroke-5" stroke-width="0.5" opacity="0.397252401"></path>
                </g>
                <path d="M34.5168627,25.3161176 C29.065098,25.3161176 24.6303922,29.7515098 24.6303922,35.2032745 C24.6303922,40.6557255 29.065098,45.0904314 34.5168627,45.0904314 C39.9693137,45.0904314 44.4047059,40.6557255 44.4047059,35.2032745 C44.4047059,29.7515098 39.9693137,25.3161176 34.5168627,25.3161176 Z" id="Stroke-7" stroke-width="0.5" opacity="0.602926345"></path>
            </g>
        </g>
    </g>
</svg>