<?xml version="1.0" encoding="UTF-8"?>
<svg width="500px" height="34px" viewBox="0 0 500 34" version="1.1" xmlns="http://www.w3.org/2000/svg" xmlns:xlink="http://www.w3.org/1999/xlink">
    <title>地图配图13</title>
    <g id="页面-1" stroke="none" stroke-width="1" fill="none" fill-rule="evenodd">
        <g id="01首页备份" transform="translate(-1416.000000, -1295.000000)" stroke-width="3.30226365">
            <g id="地图配图13" transform="translate(1418.000000, 1295.000000)">
                <line x1="0.332273768" y1="33.0226365" x2="0.332273768" y2="0" id="Stroke-1" stroke="#FFFFFF" opacity="0.297651018"></line>
                <line x1="16.8442525" y1="33.0226365" x2="16.8442525" y2="0" id="Stroke-3" stroke="#FFFFFF" opacity="0.297651018"></line>
                <line x1="33.3555707" y1="33.0226365" x2="33.3555707" y2="0" id="Stroke-5" stroke="#FFFFFF" opacity="0.297651018"></line>
                <line x1="49.8662285" y1="33.0226365" x2="49.8662285" y2="0" id="Stroke-7" stroke="#FFFFFF" opacity="0.297651018"></line>
                <line x1="66.3775467" y1="33.0226365" x2="66.3775467" y2="0" id="Stroke-9" stroke="#FFFFFF" opacity="0.297651018"></line>
                <line x1="82.888865" y1="33.0226365" x2="82.888865" y2="0" id="Stroke-11" stroke="#FFFFFF" opacity="0.297651018"></line>
                <line x1="99.4001832" y1="33.0226365" x2="99.4001832" y2="0" id="Stroke-13" stroke="#FFFFFF" opacity="0.297651018"></line>
                <line x1="115.911501" y1="33.0226365" x2="115.911501" y2="0" id="Stroke-15" stroke="#FFFFFF" opacity="0.297651018"></line>
                <line x1="132.42282" y1="33.0226365" x2="132.42282" y2="0" id="Stroke-17" stroke="#FFFFFF" opacity="0.297651018"></line>
                <line x1="148.933544" y1="33.0226365" x2="148.933544" y2="0" id="Stroke-19" stroke="#FFFFFF" opacity="0.297651018"></line>
                <line x1="165.444862" y1="33.0226365" x2="165.444862" y2="0" id="Stroke-21" stroke="#FFFFFF" opacity="0.297651018"></line>
                <line x1="181.956774" y1="33.0226365" x2="181.956774" y2="0" id="Stroke-23" stroke="#FFFFFF" opacity="0.297651018"></line>
                <line x1="198.467498" y1="33.0226365" x2="198.467498" y2="0" id="Stroke-25" stroke="#FFFFFF" opacity="0.297651018"></line>
                <line x1="214.978817" y1="33.0226365" x2="214.978817" y2="0" id="Stroke-27" stroke="#FFFFFF" opacity="0.297651018"></line>
                <line x1="231.490135" y1="33.0226365" x2="231.490135" y2="0" id="Stroke-29" stroke="#FFFFFF" opacity="0.297651018"></line>
                <line x1="248.001453" y1="33.0226365" x2="248.001453" y2="0" id="Stroke-31" stroke="#FFFFFF" opacity="0.297651018"></line>
                <line x1="264.512771" y1="33.0226365" x2="264.512771" y2="0" id="Stroke-33" stroke="#FFFFFF" opacity="0.297651018"></line>
                <line x1="281.024089" y1="33.0226365" x2="281.024089" y2="0" id="Stroke-35" stroke="#FFFFFF" opacity="0.297651018"></line>
                <line x1="297.534747" y1="33.0226365" x2="297.534747" y2="0" id="Stroke-37" stroke="#FFFFFF" opacity="0.297651018"></line>
                <line x1="314.046066" y1="33.0226365" x2="314.046066" y2="0" id="Stroke-39" stroke="#FFFFFF" opacity="0.297651018"></line>
                <line x1="330.558044" y1="33.0226365" x2="330.558044" y2="0" id="Stroke-41" stroke="#FFFFFF" opacity="0.297651018"></line>
                <line x1="347.068702" y1="33.0226365" x2="347.068702" y2="0" id="Stroke-43" stroke="#FFFFFF" opacity="0.297651018"></line>
                <line x1="363.58002" y1="33.0226365" x2="363.58002" y2="0" id="Stroke-45" stroke="#FFFFFF" opacity="0.297651018"></line>
                <line x1="380.091338" y1="33.0226365" x2="380.091338" y2="0" id="Stroke-47" stroke="#FFFFFF" opacity="0.297651018"></line>
                <line x1="396.602657" y1="33.0226365" x2="396.602657" y2="0" id="Stroke-49" stroke="#FFFFFF" opacity="0.297651018"></line>
                <line x1="413.113975" y1="33.0226365" x2="413.113975" y2="0" id="Stroke-51" stroke="#FFFFFF" opacity="0.297651018"></line>
                <line x1="429.625293" y1="33.0226365" x2="429.625293" y2="0" id="Stroke-53" stroke="#FFFFFF" opacity="0.297651018"></line>
                <line x1="446.135951" y1="33.0226365" x2="446.135951" y2="0" id="Stroke-55" stroke="#FFFFFF" opacity="0.297651018"></line>
                <line x1="462.647269" y1="33.0226365" x2="462.647269" y2="0" id="Stroke-57" stroke="#FFFFFF" opacity="0.297651018"></line>
                <line x1="479.159248" y1="33.0226365" x2="479.159248" y2="0" id="Stroke-59" stroke="#FFFFFF" opacity="0.297651018"></line>
                <line x1="495.669906" y1="33.0226365" x2="495.669906" y2="0" id="Stroke-61" stroke="#FFFFFF" opacity="0.297651018"></line>
                <line x1="0.330358455" y1="33.0207212" x2="0.330358455" y2="21.1464415" id="Stroke-63" stroke="#DD1920"></line>
                <line x1="16.8410162" y1="33.0207212" x2="16.8410162" y2="19.1637625" id="Stroke-65" stroke="#DD1920"></line>
                <line x1="33.3523345" y1="33.0207212" x2="33.3523345" y2="12.8247372" id="Stroke-67" stroke="#DD1920"></line>
                <line x1="49.8636527" y1="33.0207212" x2="49.8636527" y2="13.2745055" id="Stroke-69" stroke="#DD1920"></line>
                <line x1="66.374971" y1="33.0207212" x2="66.374971" y2="15.8350807" id="Stroke-71" stroke="#DD1920"></line>
                <line x1="82.8862892" y1="33.0207212" x2="82.8862892" y2="19.8512937" id="Stroke-73" stroke="#DD1920"></line>
                <line x1="99.3976075" y1="33.0207212" x2="99.3976075" y2="20.0593364" id="Stroke-75" stroke="#DD1920"></line>
                <line x1="115.908926" y1="33.0207212" x2="115.908926" y2="29.0751766" id="Stroke-77" stroke="#DD1920"></line>
                <line x1="132.420244" y1="33.0207212" x2="132.420244" y2="27.0469262" id="Stroke-79" stroke="#DD1920"></line>
                <line x1="148.931562" y1="33.0207212" x2="148.931562" y2="22.830596" id="Stroke-81" stroke="#DD1920"></line>
                <line x1="165.44222" y1="33.0207212" x2="165.44222" y2="13.4832085" id="Stroke-83" stroke="#DD1920"></line>
                <line x1="181.953604" y1="33.0207212" x2="181.953604" y2="27.8473949" id="Stroke-85" stroke="#DD1920"></line>
                <line x1="198.464923" y1="33.0207212" x2="198.464923" y2="14.3979356" id="Stroke-87" stroke="#DD1920"></line>
                <line x1="214.976241" y1="33.0207212" x2="214.976241" y2="19.6009822" id="Stroke-89" stroke="#DD1920"></line>
                <line x1="231.487559" y1="33.0207212" x2="231.487559" y2="29.1484868" id="Stroke-91" stroke="#DD1920"></line>
                <line x1="247.998877" y1="33.0207212" x2="247.998877" y2="18.5363324" id="Stroke-93" stroke="#DD1920"></line>
                <line x1="264.510195" y1="33.0207212" x2="264.510195" y2="21.9409662" id="Stroke-95" stroke="#DD1920"></line>
                <line x1="281.021514" y1="33.0207212" x2="281.021514" y2="29.3043537" id="Stroke-97" stroke="#DD1920"></line>
                <line x1="297.532832" y1="33.0207212" x2="297.532832" y2="29.3195441" id="Stroke-99" stroke="#DD1920"></line>
                <line x1="314.04349" y1="33.0207212" x2="314.04349" y2="16.3489129" id="Stroke-101" stroke="#DD1920"></line>
                <line x1="330.554808" y1="33.0207212" x2="330.554808" y2="13.9640181" id="Stroke-103" stroke="#DD1920"></line>
                <line x1="347.066126" y1="33.0207212" x2="347.066126" y2="19.0389369" id="Stroke-105" stroke="#DD1920"></line>
                <line x1="363.577444" y1="33.0207212" x2="363.577444" y2="16.6883856" id="Stroke-107" stroke="#DD1920"></line>
                <line x1="380.088763" y1="33.0207212" x2="380.088763" y2="29.363134" id="Stroke-109" stroke="#DD1920"></line>
                <line x1="396.600081" y1="33.0207212" x2="396.600081" y2="19.4444549" id="Stroke-111" stroke="#DD1920"></line>
                <line x1="413.111399" y1="33.0207212" x2="413.111399" y2="15.5966573" id="Stroke-113" stroke="#DD1920"></line>
                <line x1="429.622717" y1="33.0207212" x2="429.622717" y2="26.7741593" id="Stroke-115" stroke="#DD1920"></line>
                <line x1="446.134036" y1="33.0207212" x2="446.134036" y2="17.710106" id="Stroke-117" stroke="#DD1920"></line>
                <line x1="462.644693" y1="33.0207212" x2="462.644693" y2="13.3035654" id="Stroke-119" stroke="#DD1920"></line>
                <line x1="479.156012" y1="33.0207212" x2="479.156012" y2="28.7396666" id="Stroke-121" stroke="#DD1920"></line>
                <line x1="495.66733" y1="33.0207212" x2="495.66733" y2="23.3728277" id="Stroke-123" stroke="#DD1920"></line>
            </g>
        </g>
    </g>
</svg>