<?xml version="1.0" encoding="UTF-8"?>
<svg width="496px" height="50px" viewBox="0 0 496 50" version="1.1" xmlns="http://www.w3.org/2000/svg" xmlns:xlink="http://www.w3.org/1999/xlink">
    <title>地图配图12</title>
    <g id="页面-1" stroke="none" stroke-width="1" fill="none" fill-rule="evenodd" stroke-linecap="round" stroke-linejoin="round">
        <g id="01首页备份" transform="translate(-1419.000000, -1237.000000)">
            <g id="地图配图12" transform="translate(1419.000000, 1237.000000)">
                <g id="编组" opacity="0.295411609" stroke="#DD1920" stroke-width="0.5">
                    <line x1="0.403223116" y1="49.2427273" x2="0.403223116" y2="0.541428571" id="Stroke-1"></line>
                    <line x1="16.3490442" y1="49.2427273" x2="16.3490442" y2="0.541428571" id="Stroke-3"></line>
                    <line x1="32.2942066" y1="49.2427273" x2="32.2942066" y2="0.541428571" id="Stroke-5"></line>
                    <line x1="48.2399618" y1="49.2427273" x2="48.2399618" y2="0.541428571" id="Stroke-7"></line>
                    <line x1="64.1857828" y1="49.2427273" x2="64.1857828" y2="0.541428571" id="Stroke-9"></line>
                    <line x1="80.1316039" y1="49.2427273" x2="80.1316039" y2="0.541428571" id="Stroke-11"></line>
                    <line x1="96.0767004" y1="49.2427273" x2="96.0767004" y2="0.541428571" id="Stroke-13"></line>
                    <line x1="112.022521" y1="49.2427273" x2="112.022521" y2="0.541428571" id="Stroke-15"></line>
                    <line x1="127.968342" y1="49.2427273" x2="127.968342" y2="0.541428571" id="Stroke-17"></line>
                    <line x1="143.913439" y1="49.2427273" x2="143.913439" y2="0.541428571" id="Stroke-19"></line>
                    <line x1="159.85926" y1="49.2427273" x2="159.85926" y2="0.541428571" id="Stroke-21"></line>
                    <line x1="175.805081" y1="49.2427273" x2="175.805081" y2="0.541428571" id="Stroke-23"></line>
                    <line x1="191.750178" y1="49.2427273" x2="191.750178" y2="0.541428571" id="Stroke-25"></line>
                    <line x1="207.695999" y1="49.2427273" x2="207.695999" y2="0.541428571" id="Stroke-27"></line>
                    <line x1="223.64182" y1="49.2427273" x2="223.64182" y2="0.541428571" id="Stroke-29"></line>
                    <line x1="239.587575" y1="49.2427273" x2="239.587575" y2="0.541428571" id="Stroke-31"></line>
                    <line x1="255.532737" y1="49.2427273" x2="255.532737" y2="0.541428571" id="Stroke-33"></line>
                    <line x1="271.478558" y1="49.2427273" x2="271.478558" y2="0.541428571" id="Stroke-35"></line>
                    <line x1="287.424314" y1="49.2427273" x2="287.424314" y2="0.541428571" id="Stroke-37"></line>
                    <line x1="303.370135" y1="49.2427273" x2="303.370135" y2="0.541428571" id="Stroke-39"></line>
                    <line x1="319.315297" y1="49.2427273" x2="319.315297" y2="0.541428571" id="Stroke-41"></line>
                    <line x1="335.261052" y1="49.2427273" x2="335.261052" y2="0.541428571" id="Stroke-43"></line>
                    <line x1="351.206873" y1="49.2427273" x2="351.206873" y2="0.541428571" id="Stroke-45"></line>
                    <line x1="367.152036" y1="49.2427273" x2="367.152036" y2="0.541428571" id="Stroke-47"></line>
                    <line x1="383.097857" y1="49.2427273" x2="383.097857" y2="0.541428571" id="Stroke-49"></line>
                    <line x1="399.043612" y1="49.2427273" x2="399.043612" y2="0.541428571" id="Stroke-51"></line>
                    <line x1="414.988774" y1="49.2427273" x2="414.988774" y2="0.541428571" id="Stroke-53"></line>
                    <line x1="430.934595" y1="49.2427273" x2="430.934595" y2="0.541428571" id="Stroke-55"></line>
                    <line x1="446.880351" y1="49.2427273" x2="446.880351" y2="0.541428571" id="Stroke-57"></line>
                    <line x1="462.826172" y1="49.2427273" x2="462.826172" y2="0.541428571" id="Stroke-59"></line>
                    <line x1="478.771334" y1="49.2427273" x2="478.771334" y2="0.541428571" id="Stroke-61"></line>
                    <line x1="494.717089" y1="49.2427273" x2="494.717089" y2="0.541428571" id="Stroke-63"></line>
                </g>
                <line x1="8.5" y1="17.5" x2="8.5" y2="17.5" id="Stroke-65" stroke="#FFFFFF" stroke-width="0.794805195"></line>
                <g id="编组" transform="translate(0.000000, 14.000000)" stroke="#FFFFFF" stroke-width="0.794805195">
                    <path d="M5.56951106,6.15792208 C4.2686851,7.3312987 2.96917643,8.6287013 1.66900911,9.95662338" id="Stroke-66" stroke-dasharray="0,3.603246614530489"></path>
                    <line x1="0.403223116" y1="11.2557143" x2="0.403223116" y2="11.2557143" id="Stroke-68"></line>
                    <line x1="16.3490442" y1="0.786168831" x2="16.3490442" y2="0.786168831" id="Stroke-70"></line>
                    <path d="M12.1257398,1.69012987 C11.4802666,1.95961039 10.8341349,2.28493506 10.1886617,2.66220779" id="Stroke-72" stroke-dasharray="0,4.289610354931323"></path>
                    <line x1="8.37580432" y1="3.85253247" x2="8.37580432" y2="3.85253247" id="Stroke-74"></line>
                    <line x1="24.3216254" y1="3.85253247" x2="24.3216254" y2="3.85253247" id="Stroke-76"></line>
                    <path d="M20.5716899,1.69012987 C19.8827461,1.40376623 19.194461,1.18103896 18.5055172,1.02844156" id="Stroke-78" stroke-dasharray="0,4.289610354931323"></path>
                    <line x1="16.3490442" y1="0.786168831" x2="16.3490442" y2="0.786168831" id="Stroke-80"></line>
                    <line x1="32.2942066" y1="11.2557143" x2="32.2942066" y2="11.2557143" id="Stroke-82"></line>
                    <path d="M29.7515693,8.66525974 C28.419787,7.33538961 27.087346,6.06980519 25.7555637,4.96915584" id="Stroke-84" stroke-dasharray="0,3.603246614530489"></path>
                    <line x1="24.3216254" y1="3.85253247" x2="24.3216254" y2="3.85253247" id="Stroke-86"></line>
                    <line x1="40.2673806" y1="18.6588961" x2="40.2673806" y2="18.6588961" id="Stroke-88"></line>
                    <path d="M37.4604287,16.3535065 C36.1602613,15.1801299 34.8607527,13.8827273 33.5599267,12.5548052" id="Stroke-90" stroke-dasharray="0,3.603246614530489"></path>
                    <line x1="32.2942066" y1="11.2557143" x2="32.2942066" y2="11.2557143" id="Stroke-92"></line>
                    <line x1="48.2399618" y1="21.7251948" x2="48.2399618" y2="21.7251948" id="Stroke-94"></line>
                    <path d="M44.0159987,20.8206494 C43.3711842,20.5518182 42.7250525,20.2264935 42.080238,19.8492208" id="Stroke-96" stroke-dasharray="0,4.289610354931323"></path>
                    <line x1="40.2673806" y1="18.6588961" x2="40.2673806" y2="18.6588961" id="Stroke-98"></line>
                    <line x1="56.2132016" y1="18.6588961" x2="56.2132016" y2="18.6588961" id="Stroke-100"></line>
                    <path d="M52.4626734,20.8212338 C51.7743882,21.1075974 51.0854445,21.3303247 50.3965007,21.4829221" id="Stroke-102" stroke-dasharray="0,4.289610354931323"></path>
                    <line x1="48.2399618" y1="21.7251948" x2="48.2399618" y2="21.7251948" id="Stroke-104"></line>
                    <line x1="64.1857828" y1="11.2557143" x2="64.1857828" y2="11.2557143" id="Stroke-106"></line>
                    <path d="M61.6431456,13.8461039 C60.3113632,15.175974 58.9789223,16.4415584 57.6471399,17.5422078" id="Stroke-108" stroke-dasharray="0,3.603246614530489"></path>
                    <line x1="56.2132016" y1="18.6588961" x2="56.2132016" y2="18.6588961" id="Stroke-110"></line>
                    <line x1="72.158364" y1="3.85253247" x2="72.158364" y2="3.85253247" id="Stroke-112"></line>
                    <path d="M69.3514121,6.15792208 C68.0512448,7.3312987 66.7517361,8.6287013 65.4515688,9.95662338" id="Stroke-114" stroke-dasharray="0,3.603246614530489"></path>
                    <line x1="64.1857828" y1="11.2557143" x2="64.1857828" y2="11.2557143" id="Stroke-116"></line>
                    <line x1="80.1309452" y1="0.786168831" x2="80.1309452" y2="0.786168831" id="Stroke-118"></line>
                    <path d="M75.9076408,1.69077922 C75.2621677,1.95961039 74.6166946,2.28493506 73.9712214,2.66220779" id="Stroke-120" stroke-dasharray="0,4.289610354931323"></path>
                    <line x1="72.158364" y1="3.85253247" x2="72.158364" y2="3.85253247" id="Stroke-122"></line>
                    <line x1="88.1041192" y1="3.85253247" x2="88.1041192" y2="3.85253247" id="Stroke-124"></line>
                    <path d="M84.3542496,1.69012987 C83.6653058,1.40376623 82.9770207,1.18103896 82.2880769,1.02844156" id="Stroke-126" stroke-dasharray="0,4.289610354931323"></path>
                    <line x1="80.1309452" y1="0.786168831" x2="80.1309452" y2="0.786168831" id="Stroke-128"></line>
                    <line x1="96.0767004" y1="11.2557143" x2="96.0767004" y2="11.2557143" id="Stroke-130"></line>
                    <path d="M93.534129,8.66525974 C92.2023467,7.33538961 90.8699057,6.06980519 89.5381234,4.96915584" id="Stroke-132" stroke-dasharray="0,3.603246614530489"></path>
                    <line x1="88.1041192" y1="3.85253247" x2="88.1041192" y2="3.85253247" id="Stroke-134"></line>
                    <line x1="104.04994" y1="18.6588961" x2="104.04994" y2="18.6588961" id="Stroke-136"></line>
                    <path d="M101.242988,16.3535065 C99.942821,15.1801299 98.6426537,13.8827273 97.3424864,12.5548052" id="Stroke-138" stroke-dasharray="0,3.603246614530489"></path>
                    <line x1="96.0767004" y1="11.2557143" x2="96.0767004" y2="11.2557143" id="Stroke-140"></line>
                    <line x1="112.022521" y1="21.7251948" x2="112.022521" y2="21.7251948" id="Stroke-142"></line>
                    <path d="M107.799876,20.8212338 C107.154403,20.5517532 106.507612,20.2264286 105.862139,19.8491558" id="Stroke-144" stroke-dasharray="0,4.289610354931323"></path>
                    <line x1="104.04994" y1="18.6588961" x2="104.04994" y2="18.6588961" id="Stroke-146"></line>
                    <line x1="119.995103" y1="18.6588961" x2="119.995103" y2="18.6588961" id="Stroke-148"></line>
                    <path d="M116.245167,20.8212338 C115.556882,21.1075974 114.867938,21.3303247 114.178995,21.4829221" id="Stroke-150" stroke-dasharray="0,4.289610354931323"></path>
                    <line x1="112.022521" y1="21.7251948" x2="112.022521" y2="21.7251948" id="Stroke-152"></line>
                    <line x1="127.968342" y1="11.2557143" x2="127.968342" y2="11.2557143" id="Stroke-154"></line>
                    <path d="M125.425705,13.8461039 C124.093264,15.175974 122.761482,16.4415584 121.429041,17.5422078" id="Stroke-156" stroke-dasharray="0,3.603246614530489"></path>
                    <line x1="119.995103" y1="18.6588961" x2="119.995103" y2="18.6588961" id="Stroke-158"></line>
                    <line x1="135.940924" y1="3.85253247" x2="135.940924" y2="3.85253247" id="Stroke-160"></line>
                    <path d="M133.133906,6.15792208 C131.833739,7.3312987 130.53423,8.6287013 129.234063,9.95662338" id="Stroke-162" stroke-dasharray="0,3.603246614530489"></path>
                    <line x1="127.968342" y1="11.2557143" x2="127.968342" y2="11.2557143" id="Stroke-164"></line>
                    <line x1="143.913439" y1="0.786168831" x2="143.913439" y2="0.786168831" id="Stroke-166"></line>
                    <path d="M139.690793,1.69012987 C139.04532,1.95961039 138.399188,2.28493506 137.753715,2.66220779" id="Stroke-168" stroke-dasharray="0,4.289610354931323"></path>
                    <line x1="135.940924" y1="3.85253247" x2="135.940924" y2="3.85253247" id="Stroke-170"></line>
                    <line x1="151.886679" y1="3.85253247" x2="151.886679" y2="3.85253247" id="Stroke-172"></line>
                    <path d="M148.137402,1.69077922 C147.448458,1.40376623 146.759515,1.18103896 146.069912,1.02844156" id="Stroke-174" stroke-dasharray="0,4.289610354931323"></path>
                    <line x1="143.913439" y1="0.786168831" x2="143.913439" y2="0.786168831" id="Stroke-176"></line>
                    <line x1="159.85926" y1="11.2557143" x2="159.85926" y2="11.2557143" id="Stroke-178"></line>
                    <path d="M157.316689,8.66525974 C155.984906,7.33538961 154.652465,6.06980519 153.320683,4.96915584" id="Stroke-180" stroke-dasharray="0,3.603246614530489"></path>
                    <line x1="151.886679" y1="3.85253247" x2="151.886679" y2="3.85253247" id="Stroke-182"></line>
                    <line x1="167.8325" y1="18.6588961" x2="167.8325" y2="18.6588961" id="Stroke-184"></line>
                    <path d="M165.025548,16.3535065 C163.724722,15.1801299 162.425213,13.8827273 161.125046,12.5548052" id="Stroke-186" stroke-dasharray="0,3.603246614530489"></path>
                    <line x1="159.85926" y1="11.2557143" x2="159.85926" y2="11.2557143" id="Stroke-188"></line>
                    <line x1="175.805081" y1="21.7251948" x2="175.805081" y2="21.7251948" id="Stroke-190"></line>
                    <path d="M171.581118,20.8206494 C170.936304,20.5518182 170.290172,20.2264935 169.644699,19.8492208" id="Stroke-192" stroke-dasharray="0,4.289610354931323"></path>
                    <line x1="167.8325" y1="18.6588961" x2="167.8325" y2="18.6588961" id="Stroke-194"></line>
                    <line x1="183.777596" y1="18.6588961" x2="183.777596" y2="18.6588961" id="Stroke-196"></line>
                    <path d="M180.027727,20.8212338 C179.339442,21.1075974 178.650498,21.3303247 177.961554,21.4829221" id="Stroke-198" stroke-dasharray="0,4.289610354931323"></path>
                    <line x1="175.805081" y1="21.7251948" x2="175.805081" y2="21.7251948" id="Stroke-200"></line>
                    <line x1="191.750178" y1="11.2557143" x2="191.750178" y2="11.2557143" id="Stroke-202"></line>
                    <path d="M189.207606,13.8461039 C187.875824,15.175974 186.543383,16.4415584 185.212259,17.5422078" id="Stroke-204" stroke-dasharray="0,3.603246614530489"></path>
                    <line x1="183.777596" y1="18.6588961" x2="183.777596" y2="18.6588961" id="Stroke-206"></line>
                    <line x1="199.723418" y1="3.85253247" x2="199.723418" y2="3.85253247" id="Stroke-208"></line>
                    <path d="M196.916466,6.15792208 C195.616298,7.3312987 194.31679,8.6287013 193.016622,9.95662338" id="Stroke-210" stroke-dasharray="0,3.603246614530489"></path>
                    <line x1="191.750178" y1="11.2557143" x2="191.750178" y2="11.2557143" id="Stroke-212"></line>
                    <line x1="207.695999" y1="0.786168831" x2="207.695999" y2="0.786168831" id="Stroke-214"></line>
                    <path d="M203.472694,1.69077922 C202.827221,1.95961039 202.181089,2.28493506 201.536275,2.66220779" id="Stroke-216" stroke-dasharray="0,4.289610354931323"></path>
                    <line x1="199.723418" y1="3.85253247" x2="199.723418" y2="3.85253247" id="Stroke-218"></line>
                    <line x1="215.669239" y1="3.85253247" x2="215.669239" y2="3.85253247" id="Stroke-220"></line>
                    <path d="M211.919962,1.69077922 C211.231018,1.40376623 210.542074,1.18103896 209.85313,1.02844156" id="Stroke-222" stroke-dasharray="0,4.289610354931323"></path>
                    <line x1="207.695999" y1="0.786168831" x2="207.695999" y2="0.786168831" id="Stroke-224"></line>
                    <line x1="223.64182" y1="11.2557143" x2="223.64182" y2="11.2557143" id="Stroke-226"></line>
                    <path d="M221.099183,8.66525974 C219.7674,7.33538961 218.434959,6.06980519 217.103177,4.96915584" id="Stroke-228" stroke-dasharray="0,3.603246614530489"></path>
                    <line x1="215.669239" y1="3.85253247" x2="215.669239" y2="3.85253247" id="Stroke-230"></line>
                    <line x1="231.614401" y1="18.6588961" x2="231.614401" y2="18.6588961" id="Stroke-232"></line>
                    <path d="M228.807383,16.3535065 C227.507216,15.1801299 226.207707,13.8827273 224.90754,12.5548052" id="Stroke-234" stroke-dasharray="0,3.603246614530489"></path>
                    <line x1="223.64182" y1="11.2557143" x2="223.64182" y2="11.2557143" id="Stroke-236"></line>
                    <line x1="239.587575" y1="21.7251948" x2="239.587575" y2="21.7251948" id="Stroke-238"></line>
                    <path d="M235.363612,20.8206494 C234.718139,20.5518182 234.072666,20.2264935 233.427193,19.8492208" id="Stroke-240" stroke-dasharray="0,4.289610354931323"></path>
                    <line x1="231.614401" y1="18.6588961" x2="231.614401" y2="18.6588961" id="Stroke-242"></line>
                    <line x1="247.560156" y1="18.6588961" x2="247.560156" y2="18.6588961" id="Stroke-244"></line>
                    <path d="M243.810287,20.8212338 C243.121343,21.1075974 242.432399,21.3303247 241.744114,21.4829221" id="Stroke-246" stroke-dasharray="0,4.289610354931323"></path>
                    <line x1="239.587575" y1="21.7251948" x2="239.587575" y2="21.7251948" id="Stroke-248"></line>
                    <line x1="255.532737" y1="11.2557143" x2="255.532737" y2="11.2557143" id="Stroke-250"></line>
                    <path d="M252.990166,13.8461039 C251.658384,15.175974 250.325943,16.4415584 248.99416,17.5422078" id="Stroke-252" stroke-dasharray="0,3.603246614530489"></path>
                    <line x1="247.560156" y1="18.6588961" x2="247.560156" y2="18.6588961" id="Stroke-254"></line>
                    <line x1="263.505977" y1="3.85253247" x2="263.505977" y2="3.85253247" id="Stroke-256"></line>
                    <path d="M260.699025,6.15792208 C259.398858,7.3312987 258.099349,8.6287013 256.799182,9.95662338" id="Stroke-258" stroke-dasharray="0,3.603246614530489"></path>
                    <line x1="255.532737" y1="11.2557143" x2="255.532737" y2="11.2557143" id="Stroke-260"></line>
                    <line x1="271.478558" y1="0.786168831" x2="271.478558" y2="0.786168831" id="Stroke-262"></line>
                    <path d="M267.254595,1.69077922 C266.609781,1.95961039 265.963649,2.28493506 265.318176,2.66220779" id="Stroke-264" stroke-dasharray="0,4.289610354931323"></path>
                    <line x1="263.505977" y1="3.85253247" x2="263.505977" y2="3.85253247" id="Stroke-266"></line>
                    <line x1="279.45114" y1="3.85253247" x2="279.45114" y2="3.85253247" id="Stroke-268"></line>
                    <path d="M275.702521,1.69077922 C275.013578,1.40376623 274.324634,1.18103896 273.635031,1.02844156" id="Stroke-270" stroke-dasharray="0,4.289610354931323"></path>
                    <line x1="271.478558" y1="0.786168831" x2="271.478558" y2="0.786168831" id="Stroke-272"></line>
                    <line x1="287.424314" y1="11.2557143" x2="287.424314" y2="11.2557143" id="Stroke-274"></line>
                    <path d="M284.881742,8.66525974 C283.54996,7.33538961 282.217519,6.06980519 280.885737,4.96915584" id="Stroke-276" stroke-dasharray="0,3.603246614530489"></path>
                    <line x1="279.45114" y1="3.85253247" x2="279.45114" y2="3.85253247" id="Stroke-278"></line>
                    <line x1="295.396895" y1="18.6588961" x2="295.396895" y2="18.6588961" id="Stroke-280"></line>
                    <path d="M292.589943,16.3535065 C291.289776,15.1801299 289.990267,13.8827273 288.6901,12.5548052" id="Stroke-282" stroke-dasharray="0,3.603246614530489"></path>
                    <line x1="287.424314" y1="11.2557143" x2="287.424314" y2="11.2557143" id="Stroke-284"></line>
                    <line x1="303.370135" y1="21.7251948" x2="303.370135" y2="21.7251948" id="Stroke-286"></line>
                    <path d="M299.14683,20.8212338 C298.501357,20.5517532 297.855225,20.2264286 297.209752,19.8491558" id="Stroke-288" stroke-dasharray="0,4.289610354931323"></path>
                    <line x1="295.396895" y1="18.6588961" x2="295.396895" y2="18.6588961" id="Stroke-290"></line>
                    <line x1="311.342716" y1="18.6588961" x2="311.342716" y2="18.6588961" id="Stroke-292"></line>
                    <path d="M307.59278,20.8212338 C306.903837,21.1075974 306.215551,21.3303247 305.526608,21.4829221" id="Stroke-294" stroke-dasharray="0,4.289610354931323"></path>
                    <line x1="303.370135" y1="21.7251948" x2="303.370135" y2="21.7251948" id="Stroke-296"></line>
                    <line x1="319.315297" y1="11.2557143" x2="319.315297" y2="11.2557143" id="Stroke-298"></line>
                    <path d="M316.77266,13.8461039 C315.440877,15.175974 314.108437,16.4415584 312.776654,17.5422078" id="Stroke-300" stroke-dasharray="0,3.603246614530489"></path>
                    <line x1="311.342716" y1="18.6588961" x2="311.342716" y2="18.6588961" id="Stroke-302"></line>
                    <line x1="327.287878" y1="3.85253247" x2="327.287878" y2="3.85253247" id="Stroke-304"></line>
                    <path d="M324.481519,6.15792208 C323.181352,7.3312987 321.881843,8.6287013 320.581017,9.95662338" id="Stroke-306" stroke-dasharray="0,3.603246614530489"></path>
                    <line x1="319.315297" y1="11.2557143" x2="319.315297" y2="11.2557143" id="Stroke-308"></line>
                    <line x1="335.261052" y1="0.786168831" x2="335.261052" y2="0.786168831" id="Stroke-310"></line>
                    <path d="M331.037089,1.69077922 C330.392275,1.95961039 329.746143,2.28493506 329.10067,2.66220779" id="Stroke-312" stroke-dasharray="0,4.289610354931323"></path>
                    <line x1="327.287878" y1="3.85253247" x2="327.287878" y2="3.85253247" id="Stroke-314"></line>
                    <line x1="343.233699" y1="3.85253247" x2="343.233699" y2="3.85253247" id="Stroke-316"></line>
                    <path d="M339.483764,1.69012987 C338.79482,1.40376623 338.106535,1.18103896 337.417591,1.02844156" id="Stroke-318" stroke-dasharray="0,4.289610354931323"></path>
                    <line x1="335.261052" y1="0.786168831" x2="335.261052" y2="0.786168831" id="Stroke-320"></line>
                    <line x1="351.206873" y1="11.2557143" x2="351.206873" y2="11.2557143" id="Stroke-322"></line>
                    <path d="M348.663643,8.66525974 C347.33252,7.33538961 345.99942,6.06980519 344.668296,4.96915584" id="Stroke-324" stroke-dasharray="0,3.603246614530489"></path>
                    <line x1="343.233699" y1="3.85253247" x2="343.233699" y2="3.85253247" id="Stroke-326"></line>
                    <line x1="359.179454" y1="18.6588961" x2="359.179454" y2="18.6588961" id="Stroke-328"></line>
                    <path d="M356.372503,16.3535065 C355.072335,15.1801299 353.772827,13.8827273 352.472659,12.5548052" id="Stroke-330" stroke-dasharray="0,3.603246614530489"></path>
                    <line x1="351.206873" y1="11.2557143" x2="351.206873" y2="11.2557143" id="Stroke-332"></line>
                    <line x1="367.152036" y1="21.7251948" x2="367.152036" y2="21.7251948" id="Stroke-334"></line>
                    <path d="M362.92939,20.8212338 C362.283917,20.5517532 361.637785,20.2264286 360.992312,19.8491558" id="Stroke-336" stroke-dasharray="0,4.289610354931323"></path>
                    <line x1="359.179454" y1="18.6588961" x2="359.179454" y2="18.6588961" id="Stroke-338"></line>
                    <line x1="375.125276" y1="18.6588961" x2="375.125276" y2="18.6588961" id="Stroke-340"></line>
                    <path d="M371.37534,20.8212338 C370.686396,21.1075974 369.997453,21.3303247 369.309167,21.4829221" id="Stroke-342" stroke-dasharray="0,4.289610354931323"></path>
                    <line x1="367.152036" y1="21.7251948" x2="367.152036" y2="21.7251948" id="Stroke-344"></line>
                    <line x1="383.097857" y1="11.2557143" x2="383.097857" y2="11.2557143" id="Stroke-346"></line>
                    <path d="M380.55522,13.8461039 C379.223437,15.175974 377.890996,16.4415584 376.559214,17.5422078" id="Stroke-348" stroke-dasharray="0,3.603246614530489"></path>
                    <line x1="375.125276" y1="18.6588961" x2="375.125276" y2="18.6588961" id="Stroke-350"></line>
                    <line x1="391.070438" y1="3.85253247" x2="391.070438" y2="3.85253247" id="Stroke-352"></line>
                    <path d="M388.264079,6.15792208 C386.963912,7.3312987 385.663744,8.6287013 384.363577,9.95662338" id="Stroke-354" stroke-dasharray="0,3.603246614530489"></path>
                    <line x1="383.097857" y1="11.2557143" x2="383.097857" y2="11.2557143" id="Stroke-356"></line>
                    <line x1="399.043612" y1="0.786168831" x2="399.043612" y2="0.786168831" id="Stroke-358"></line>
                    <path d="M394.819649,1.69077922 C394.174176,1.95961039 393.528703,2.28493506 392.883229,2.66220779" id="Stroke-360" stroke-dasharray="0,4.289610354931323"></path>
                    <line x1="391.070438" y1="3.85253247" x2="391.070438" y2="3.85253247" id="Stroke-362"></line>
                    <line x1="407.016193" y1="3.85253247" x2="407.016193" y2="3.85253247" id="Stroke-364"></line>
                    <path d="M403.266324,1.69012987 C402.57738,1.40376623 401.889095,1.18103896 401.200151,1.02844156" id="Stroke-366" stroke-dasharray="0,4.289610354931323"></path>
                    <line x1="399.043612" y1="0.786168831" x2="399.043612" y2="0.786168831" id="Stroke-368"></line>
                    <line x1="414.989433" y1="11.2557143" x2="414.989433" y2="11.2557143" id="Stroke-370"></line>
                    <path d="M412.446203,8.66525974 C411.114421,7.33538961 409.78198,6.06980519 408.450197,4.96915584" id="Stroke-372" stroke-dasharray="0,3.603246614530489"></path>
                    <line x1="407.016193" y1="3.85253247" x2="407.016193" y2="3.85253247" id="Stroke-374"></line>
                    <line x1="422.962014" y1="18.6588961" x2="422.962014" y2="18.6588961" id="Stroke-376"></line>
                    <path d="M420.155062,16.3535065 C418.854895,15.1801299 417.555386,13.8827273 416.25456,12.5548052" id="Stroke-378" stroke-dasharray="0,3.603246614530489"></path>
                    <line x1="414.989433" y1="11.2557143" x2="414.989433" y2="11.2557143" id="Stroke-380"></line>
                    <line x1="430.934595" y1="21.7251948" x2="430.934595" y2="21.7251948" id="Stroke-382"></line>
                    <path d="M426.710632,20.8206494 C426.065818,20.5518182 425.419686,20.2264935 424.774213,19.8492208" id="Stroke-384" stroke-dasharray="0,4.289610354931323"></path>
                    <line x1="422.962014" y1="18.6588961" x2="422.962014" y2="18.6588961" id="Stroke-386"></line>
                    <line x1="438.907177" y1="18.6588961" x2="438.907177" y2="18.6588961" id="Stroke-388"></line>
                    <path d="M435.1579,20.8212338 C434.468956,21.1075974 433.780012,21.3303247 433.091068,21.4829221" id="Stroke-390" stroke-dasharray="0,4.289610354931323"></path>
                    <line x1="430.934595" y1="21.7251948" x2="430.934595" y2="21.7251948" id="Stroke-392"></line>
                    <line x1="446.880351" y1="11.2557143" x2="446.880351" y2="11.2557143" id="Stroke-394"></line>
                    <path d="M444.337779,13.8461039 C443.005997,15.175974 441.673556,16.4415584 440.341774,17.5422078" id="Stroke-396" stroke-dasharray="0,3.603246614530489"></path>
                    <line x1="438.907177" y1="18.6588961" x2="438.907177" y2="18.6588961" id="Stroke-398"></line>
                    <line x1="454.852932" y1="3.85253247" x2="454.852932" y2="3.85253247" id="Stroke-400"></line>
                    <path d="M452.046639,6.15792208 C450.745813,7.3312987 449.446304,8.6287013 448.146137,9.95662338" id="Stroke-402" stroke-dasharray="0,3.603246614530489"></path>
                    <line x1="446.880351" y1="11.2557143" x2="446.880351" y2="11.2557143" id="Stroke-404"></line>
                    <line x1="462.826172" y1="0.786168831" x2="462.826172" y2="0.786168831" id="Stroke-406"></line>
                    <path d="M458.602209,1.69077922 C457.956735,1.95961039 457.310604,2.28493506 456.665789,2.66220779" id="Stroke-408" stroke-dasharray="0,4.289610354931323"></path>
                    <line x1="454.852932" y1="3.85253247" x2="454.852932" y2="3.85253247" id="Stroke-410"></line>
                    <line x1="470.798753" y1="3.85253247" x2="470.798753" y2="3.85253247" id="Stroke-412"></line>
                    <path d="M467.048817,1.69012987 C466.359874,1.40376623 465.671588,1.18103896 464.982645,1.02844156" id="Stroke-414" stroke-dasharray="0,4.289610354931323"></path>
                    <line x1="462.826172" y1="0.786168831" x2="462.826172" y2="0.786168831" id="Stroke-416"></line>
                    <line x1="478.771334" y1="11.2557143" x2="478.771334" y2="11.2557143" id="Stroke-418"></line>
                    <path d="M476.228697,8.66525974 C474.896914,7.33538961 473.564473,6.06980519 472.232691,4.96915584" id="Stroke-420" stroke-dasharray="0,3.603246614530489"></path>
                    <line x1="470.798753" y1="3.85253247" x2="470.798753" y2="3.85253247" id="Stroke-422"></line>
                    <line x1="486.744574" y1="18.6588961" x2="486.744574" y2="18.6588961" id="Stroke-424"></line>
                    <path d="M483.937556,16.3535065 C482.637389,15.1801299 481.337221,13.8827273 480.037054,12.5548052" id="Stroke-426" stroke-dasharray="0,3.603246614530489"></path>
                    <line x1="478.771334" y1="11.2557143" x2="478.771334" y2="11.2557143" id="Stroke-428"></line>
                    <line x1="494.717089" y1="21.7251948" x2="494.717089" y2="21.7251948" id="Stroke-430"></line>
                    <path d="M490.493192,20.8206494 C489.848378,20.5518182 489.202246,20.2264935 488.557431,19.8492208" id="Stroke-432" stroke-dasharray="0,4.289610354931323"></path>
                    <line x1="486.744574" y1="18.6588961" x2="486.744574" y2="18.6588961" id="Stroke-434"></line>
                </g>
            </g>
        </g>
    </g>
</svg>