<?xml version="1.0" encoding="UTF-8"?>
<svg width="1104px" height="72px" viewBox="0 0 1104 72" version="1.1" xmlns="http://www.w3.org/2000/svg" xmlns:xlink="http://www.w3.org/1999/xlink">
    <title>WelcometoRosettaNetExplorer</title>
    <g id="页面-1" stroke="none" stroke-width="1" fill="none" fill-rule="evenodd">
        <g id="01首页" transform="translate(-408.000000, -322.000000)" fill="#DEE9FF" fill-rule="nonzero">
            <path d="M430.9,393 L434.9,355.7 L438.9,393 L453.5,393 L461.3,323 L451.7,323 L446,378.6 L440.5,323 L429.9,323 L424.6,378.2 L418.7,323 L408,323 L415.8,393 L430.9,393 Z M496.8,393 L496.8,383 L477.8,383 L477.8,362.5 L492.9,362.5 L492.9,352.5 L477.8,352.5 L477.8,333 L496.8,333 L496.8,323 L466.8,323 L466.8,393 L496.8,393 Z M532.7,393 L532.7,383 L514.6,383 L514.6,323 L503.6,323 L503.6,393 L532.7,393 Z M553,393.8 C558.4,393.8 562.483333,392.283333 565.25,389.25 C568.016667,386.216667 569.4,381.866667 569.4,376.2 L569.4,376.2 L569.4,366.9 L559,366.9 L559,376.9 C559,379.433333 558.483333,381.2 557.45,382.2 C556.416667,383.2 555.033333,383.7 553.3,383.7 C551.566667,383.7 550.183333,383.2 549.15,382.2 C548.116667,381.2 547.6,379.433333 547.6,376.9 L547.6,376.9 L547.6,339.1 C547.6,336.566667 548.116667,334.783333 549.15,333.75 C550.183333,332.716667 551.566667,332.2 553.3,332.2 C555.033333,332.2 556.416667,332.716667 557.45,333.75 C558.483333,334.783333 559,336.566667 559,339.1 L559,339.1 L559,346.6 L569.4,346.6 L569.4,339.8 C569.4,334.133333 568.016667,329.783333 565.25,326.75 C562.483333,323.716667 558.4,322.2 553,322.2 C547.6,322.2 543.516667,323.716667 540.75,326.75 C537.983333,329.783333 536.6,334.133333 536.6,339.8 L536.6,339.8 L536.6,376.2 C536.6,381.866667 537.983333,386.216667 540.75,389.25 C543.516667,392.283333 547.6,393.8 553,393.8 Z M591.9,393.8 C597.3,393.8 601.433333,392.283333 604.3,389.25 C607.166667,386.216667 608.6,381.866667 608.6,376.2 L608.6,376.2 L608.6,339.8 C608.6,334.133333 607.166667,329.783333 604.3,326.75 C601.433333,323.716667 597.3,322.2 591.9,322.2 C586.5,322.2 582.366667,323.716667 579.5,326.75 C576.633333,329.783333 575.2,334.133333 575.2,339.8 L575.2,339.8 L575.2,376.2 C575.2,381.866667 576.633333,386.216667 579.5,389.25 C582.366667,392.283333 586.5,393.8 591.9,393.8 Z M591.9,383.8 C590.166667,383.8 588.783333,383.283333 587.75,382.25 C586.716667,381.216667 586.2,379.433333 586.2,376.9 L586.2,376.9 L586.2,339.1 C586.2,336.566667 586.716667,334.783333 587.75,333.75 C588.783333,332.716667 590.166667,332.2 591.9,332.2 C593.633333,332.2 595.016667,332.716667 596.05,333.75 C597.083333,334.783333 597.6,336.566667 597.6,339.1 L597.6,339.1 L597.6,376.9 C597.6,379.433333 597.083333,381.216667 596.05,382.25 C595.016667,383.283333 593.633333,383.8 591.9,383.8 Z M625.2,393 L625.2,343.5 L633.4,393 L643.8,393 L651.4,342.8 L651.4,393 L661.8,393 L661.8,323 L646.5,323 L639,372.7 L630.9,323 L615.6,323 L615.6,393 L625.2,393 Z M699.8,393 L699.8,383 L680.8,383 L680.8,362.5 L695.9,362.5 L695.9,352.5 L680.8,352.5 L680.8,333 L699.8,333 L699.8,323 L669.8,323 L669.8,393 L699.8,393 Z M741.4,393 L741.4,333 L752.9,333 L752.9,323 L718.9,323 L718.9,333 L730.4,333 L730.4,393 L741.4,393 Z M773.5,393.8 C778.9,393.8 783.033333,392.283333 785.9,389.25 C788.766667,386.216667 790.2,381.866667 790.2,376.2 L790.2,376.2 L790.2,339.8 C790.2,334.133333 788.766667,329.783333 785.9,326.75 C783.033333,323.716667 778.9,322.2 773.5,322.2 C768.1,322.2 763.966667,323.716667 761.1,326.75 C758.233333,329.783333 756.8,334.133333 756.8,339.8 L756.8,339.8 L756.8,376.2 C756.8,381.866667 758.233333,386.216667 761.1,389.25 C763.966667,392.283333 768.1,393.8 773.5,393.8 Z M773.5,383.8 C771.766667,383.8 770.383333,383.283333 769.35,382.25 C768.316667,381.216667 767.8,379.433333 767.8,376.9 L767.8,376.9 L767.8,339.1 C767.8,336.566667 768.316667,334.783333 769.35,333.75 C770.383333,332.716667 771.766667,332.2 773.5,332.2 C775.233333,332.2 776.616667,332.716667 777.65,333.75 C778.683333,334.783333 779.2,336.566667 779.2,339.1 L779.2,339.1 L779.2,376.9 C779.2,379.433333 778.683333,381.216667 777.65,382.25 C776.616667,383.283333 775.233333,383.8 773.5,383.8 Z M823.8,393 L823.8,364.5 L827.6,364.5 C830.133333,364.5 831.966667,365.166667 833.1,366.5 C834.233333,367.833333 834.8,370.133333 834.8,373.4 L834.8,373.4 L834.800617,384.858025 C834.803909,386.056379 834.82037,387.07037 834.85,387.9 C834.883333,388.833333 834.95,389.6 835.05,390.2 C835.15,390.8 835.266667,391.3 835.4,391.7 C835.533333,392.1 835.666667,392.533333 835.8,393 L835.8,393 L847,393 C846.466667,391.666667 846.133333,390.35 846,389.05 C845.866667,387.75 845.8,386.233333 845.8,384.5 L845.8,384.5 L845.8,373.7 C845.8,370.033333 845.283333,366.916667 844.25,364.35 C843.216667,361.783333 841.3,359.933333 838.5,358.8 C843.3,356.533333 845.7,351.8 845.7,344.6 L845.7,344.6 L845.7,339.1 C845.7,333.7 844.416667,329.666667 841.85,327 C839.283333,324.333333 835.133333,323 829.4,323 L829.4,323 L812.8,323 L812.8,393 L823.8,393 Z M828.1,354.5 L823.8,354.5 L823.8,333 L829.1,333 C831.033333,333 832.45,333.566667 833.35,334.7 C834.25,335.833333 834.7,337.666667 834.7,340.2 L834.7,340.2 L834.7,347.1 C834.7,349.9 834.116667,351.833333 832.95,352.9 C831.783333,353.966667 830.166667,354.5 828.1,354.5 L828.1,354.5 Z M868.8,393.8 C874.2,393.8 878.333333,392.283333 881.2,389.25 C884.066667,386.216667 885.5,381.866667 885.5,376.2 L885.5,376.2 L885.5,339.8 C885.5,334.133333 884.066667,329.783333 881.2,326.75 C878.333333,323.716667 874.2,322.2 868.8,322.2 C863.4,322.2 859.266667,323.716667 856.4,326.75 C853.533333,329.783333 852.1,334.133333 852.1,339.8 L852.1,339.8 L852.1,376.2 C852.1,381.866667 853.533333,386.216667 856.4,389.25 C859.266667,392.283333 863.4,393.8 868.8,393.8 Z M868.8,383.8 C867.066667,383.8 865.683333,383.283333 864.65,382.25 C863.616667,381.216667 863.1,379.433333 863.1,376.9 L863.1,376.9 L863.1,339.1 C863.1,336.566667 863.616667,334.783333 864.65,333.75 C865.683333,332.716667 867.066667,332.2 868.8,332.2 C870.533333,332.2 871.916667,332.716667 872.95,333.75 C873.983333,334.783333 874.5,336.566667 874.5,339.1 L874.5,339.1 L874.5,376.9 C874.5,379.433333 873.983333,381.216667 872.95,382.25 C871.916667,383.283333 870.533333,383.8 868.8,383.8 Z M907.3,393.8 C912.7,393.8 916.783333,392.283333 919.55,389.25 C922.316667,386.216667 923.7,381.866667 923.7,376.2 C923.7,372.866667 923.166667,369.966667 922.1,367.5 C921.033333,365.033333 919.7,362.833333 918.1,360.9 C916.5,358.966667 914.783333,357.183333 912.95,355.55 C911.116667,353.916667 909.4,352.283333 907.8,350.65 C906.2,349.016667 904.866667,347.283333 903.8,345.45 C902.733333,343.616667 902.2,341.5 902.2,339.1 C902.2,336.566667 902.683333,334.783333 903.65,333.75 C904.616667,332.716667 905.966667,332.2 907.7,332.2 C909.433333,332.2 910.783333,332.716667 911.75,333.75 C912.716667,334.783333 913.2,336.566667 913.2,339.1 L913.2,339.1 L913.2,342 L923.6,342 L923.6,339.8 C923.6,334.133333 922.25,329.783333 919.55,326.75 C916.85,323.716667 912.8,322.2 907.4,322.2 C902,322.2 897.95,323.716667 895.25,326.75 C892.55,329.783333 891.2,334.133333 891.2,339.8 C891.2,343.133333 891.733333,346.033333 892.8,348.5 C893.866667,350.966667 895.2,353.166667 896.8,355.1 C898.4,357.033333 900.116667,358.816667 901.95,360.45 C903.783333,362.083333 905.5,363.716667 907.1,365.35 C908.7,366.983333 910.033333,368.716667 911.1,370.55 C912.166667,372.383333 912.7,374.5 912.7,376.9 C912.7,379.433333 912.183333,381.2 911.15,382.2 C910.116667,383.2 908.733333,383.7 907,383.7 C905.266667,383.7 903.883333,383.2 902.85,382.2 C901.816667,381.2 901.3,379.433333 901.3,376.9 L901.3,376.9 L901.3,371.9 L890.9,371.9 L890.9,376.2 C890.9,381.866667 892.283333,386.216667 895.05,389.25 C897.816667,392.283333 901.9,393.8 907.3,393.8 Z M960,393 L960,383 L941,383 L941,362.5 L956.1,362.5 L956.1,352.5 L941,352.5 L941,333 L960,333 L960,323 L930,323 L930,393 L960,393 Z M986.1,393 L986.1,333 L997.6,333 L997.6,323 L963.6,323 L963.6,333 L975.1,333 L975.1,393 L986.1,393 Z M1021.7,393 L1021.7,333 L1033.2,333 L1033.2,323 L999.2,323 L999.2,333 L1010.7,333 L1010.7,393 L1021.7,393 Z M1045.2,393 L1047.1,380.3 L1060.6,380.3 L1062.5,393 L1073.6,393 L1062.4,323 L1046.3,323 L1035.1,393 L1045.2,393 Z M1059.1,370.8 L1048.5,370.8 L1053.8,335.4 L1059.1,370.8 Z M1088.5,393 L1088.5,342.3 L1102.2,393 L1113.5,393 L1113.5,323 L1103.7,323 L1103.7,364.9 L1092.4,323 L1078.6,323 L1078.6,393 L1088.5,393 Z M1151.4,393 L1151.4,383 L1132.4,383 L1132.4,362.5 L1147.5,362.5 L1147.5,352.5 L1132.4,352.5 L1132.4,333 L1151.4,333 L1151.4,323 L1121.4,323 L1121.4,393 L1151.4,393 Z M1177.5,393 L1177.5,333 L1189,333 L1189,323 L1155,323 L1155,333 L1166.5,333 L1166.5,393 L1177.5,393 Z M1239.3,393 L1239.3,383 L1220.3,383 L1220.3,362.5 L1235.4,362.5 L1235.4,352.5 L1220.3,352.5 L1220.3,333 L1239.3,333 L1239.3,323 L1209.3,323 L1209.3,393 L1239.3,393 Z M1253.9,393 L1263,365.3 L1272,393 L1283.6,393 L1271.3,357 L1282.8,323 L1272.6,323 L1264.1,348.8 L1255.8,323 L1244.4,323 L1255.9,357 L1243.6,393 L1253.9,393 Z M1300.1,393 L1300.1,366.7 L1305.3,366.7 C1310.83333,366.7 1314.95,365.233333 1317.65,362.3 C1320.35,359.366667 1321.7,355.066667 1321.7,349.4 L1321.7,349.4 L1321.7,340.3 C1321.7,334.633333 1320.35,330.333333 1317.65,327.4 C1314.95,324.466667 1310.83333,323 1305.3,323 L1305.3,323 L1289.1,323 L1289.1,393 L1300.1,393 Z M1305.3,356.7 L1300.1,356.7 L1300.1,333 L1305.3,333 C1307.03333,333 1308.36667,333.466667 1309.3,334.4 C1310.23333,335.333333 1310.7,337.066667 1310.7,339.6 L1310.7,339.6 L1310.7,350.1 C1310.7,352.633333 1310.23333,354.366667 1309.3,355.3 C1308.36667,356.233333 1307.03333,356.7 1305.3,356.7 L1305.3,356.7 Z M1355.9,393 L1355.9,383 L1337.8,383 L1337.8,323 L1326.8,323 L1326.8,393 L1355.9,393 Z M1376.5,393.8 C1381.9,393.8 1386.03333,392.283333 1388.9,389.25 C1391.76667,386.216667 1393.2,381.866667 1393.2,376.2 L1393.2,376.2 L1393.2,339.8 C1393.2,334.133333 1391.76667,329.783333 1388.9,326.75 C1386.03333,323.716667 1381.9,322.2 1376.5,322.2 C1371.1,322.2 1366.96667,323.716667 1364.1,326.75 C1361.23333,329.783333 1359.8,334.133333 1359.8,339.8 L1359.8,339.8 L1359.8,376.2 C1359.8,381.866667 1361.23333,386.216667 1364.1,389.25 C1366.96667,392.283333 1371.1,393.8 1376.5,393.8 Z M1376.5,383.8 C1374.76667,383.8 1373.38333,383.283333 1372.35,382.25 C1371.31667,381.216667 1370.8,379.433333 1370.8,376.9 L1370.8,376.9 L1370.8,339.1 C1370.8,336.566667 1371.31667,334.783333 1372.35,333.75 C1373.38333,332.716667 1374.76667,332.2 1376.5,332.2 C1378.23333,332.2 1379.61667,332.716667 1380.65,333.75 C1381.68333,334.783333 1382.2,336.566667 1382.2,339.1 L1382.2,339.1 L1382.2,376.9 C1382.2,379.433333 1381.68333,381.216667 1380.65,382.25 C1379.61667,383.283333 1378.23333,383.8 1376.5,383.8 Z M1411.3,393 L1411.3,364.5 L1415.1,364.5 C1417.63333,364.5 1419.46667,365.166667 1420.6,366.5 C1421.73333,367.833333 1422.3,370.133333 1422.3,373.4 L1422.3,373.4 L1422.30062,384.858025 C1422.30391,386.056379 1422.32037,387.07037 1422.35,387.9 C1422.38333,388.833333 1422.45,389.6 1422.55,390.2 C1422.65,390.8 1422.76667,391.3 1422.9,391.7 C1423.03333,392.1 1423.16667,392.533333 1423.3,393 L1423.3,393 L1434.5,393 C1433.96667,391.666667 1433.63333,390.35 1433.5,389.05 C1433.36667,387.75 1433.3,386.233333 1433.3,384.5 L1433.3,384.5 L1433.3,373.7 C1433.3,370.033333 1432.78333,366.916667 1431.75,364.35 C1430.71667,361.783333 1428.8,359.933333 1426,358.8 C1430.8,356.533333 1433.2,351.8 1433.2,344.6 L1433.2,344.6 L1433.2,339.1 C1433.2,333.7 1431.91667,329.666667 1429.35,327 C1426.78333,324.333333 1422.63333,323 1416.9,323 L1416.9,323 L1400.3,323 L1400.3,393 L1411.3,393 Z M1415.6,354.5 L1411.3,354.5 L1411.3,333 L1416.6,333 C1418.53333,333 1419.95,333.566667 1420.85,334.7 C1421.75,335.833333 1422.2,337.666667 1422.2,340.2 L1422.2,340.2 L1422.2,347.1 C1422.2,349.9 1421.61667,351.833333 1420.45,352.9 C1419.28333,353.966667 1417.66667,354.5 1415.6,354.5 L1415.6,354.5 Z M1470.5,393 L1470.5,383 L1451.5,383 L1451.5,362.5 L1466.6,362.5 L1466.6,352.5 L1451.5,352.5 L1451.5,333 L1470.5,333 L1470.5,323 L1440.5,323 L1440.5,393 L1470.5,393 Z M1488.3,393 L1488.3,364.5 L1492.1,364.5 C1494.63333,364.5 1496.46667,365.166667 1497.6,366.5 C1498.73333,367.833333 1499.3,370.133333 1499.3,373.4 L1499.3,373.4 L1499.30062,384.858025 C1499.30391,386.056379 1499.32037,387.07037 1499.35,387.9 C1499.38333,388.833333 1499.45,389.6 1499.55,390.2 C1499.65,390.8 1499.76667,391.3 1499.9,391.7 C1500.03333,392.1 1500.16667,392.533333 1500.3,393 L1500.3,393 L1511.5,393 C1510.96667,391.666667 1510.63333,390.35 1510.5,389.05 C1510.36667,387.75 1510.3,386.233333 1510.3,384.5 L1510.3,384.5 L1510.3,373.7 C1510.3,370.033333 1509.78333,366.916667 1508.75,364.35 C1507.71667,361.783333 1505.8,359.933333 1503,358.8 C1507.8,356.533333 1510.2,351.8 1510.2,344.6 L1510.2,344.6 L1510.2,339.1 C1510.2,333.7 1508.91667,329.666667 1506.35,327 C1503.78333,324.333333 1499.63333,323 1493.9,323 L1493.9,323 L1477.3,323 L1477.3,393 L1488.3,393 Z M1492.6,354.5 L1488.3,354.5 L1488.3,333 L1493.6,333 C1495.53333,333 1496.95,333.566667 1497.85,334.7 C1498.75,335.833333 1499.2,337.666667 1499.2,340.2 L1499.2,340.2 L1499.2,347.1 C1499.2,349.9 1498.61667,351.833333 1497.45,352.9 C1496.28333,353.966667 1494.66667,354.5 1492.6,354.5 L1492.6,354.5 Z" id="WelcometoRosettaNetExplorer"></path>
        </g>
    </g>
</svg>