<?xml version="1.0" encoding="UTF-8"?>
<svg width="159px" height="40px" viewBox="0 0 159 40" version="1.1" xmlns="http://www.w3.org/2000/svg" xmlns:xlink="http://www.w3.org/1999/xlink">
    <title>编组</title>
    <g id="页面-1" stroke="none" stroke-width="1" fill="none" fill-rule="evenodd">
        <g id="01首页备份" transform="translate(-20.000000, -20.000000)">
            <g id="编组" transform="translate(20.000000, 20.000000)">
                <rect id="矩形" opacity="0.200000003" x="0" y="0" width="40" height="40"></rect>
                <g id="logo" fill="#FEFEFE">
                    <path d="M30.2980171,7.59590805 L33.8989314,4.7674023 C29.9025886,2.03912644 25.11676,0.45062069 19.9382457,0.45062069 C14.8077314,0.45062069 9.97298857,2.03912644 6.02647429,4.7674023 L9.57847429,7.59590805 C12.6372171,5.81016092 16.1892171,4.7674023 19.9382457,4.7674023 C23.73756,4.7674023 27.2872743,5.81016092 30.2980171,7.59590805 Z" id="Fill-3"></path>
                    <path d="M6.02642857,35.2325517 C9.97294286,37.9612874 14.8076857,39.5497931 19.9382,39.5497931 C25.1167143,39.5497931 29.9025429,37.9612874 33.8988857,35.2325517 L30.2979714,32.4541609 C27.2872286,34.2403678 23.7375143,35.2325517 19.9382,35.2325517 C16.1891714,35.2325517 12.6371714,34.2403678 9.57842857,32.4541609 L6.02642857,35.2325517 Z" id="Fill-5"></path>
                    <path d="M7.60594857,9.58018391 L4.79360571,6.00822989 C2.12937714,9.97696552 0.549948571,14.7912184 0.549948571,19.999954 C0.549948571,25.2091494 2.12937714,30.0229425 4.79360571,34.0417931 L7.60594857,30.4197241 C5.82949143,27.3438621 4.79360571,23.8201839 4.79360571,19.999954 C4.79360571,16.2293793 5.82949143,12.6569655 7.60594857,9.58018391 Z" id="Fill-7"></path>
                    <path d="M35.0828857,34.0418391 C37.7964857,30.0229885 39.375,25.2091954 39.375,20 C39.375,14.7912644 37.7964857,9.97701149 35.0828857,6.00827586 L32.3203714,9.58022989 C34.0972857,12.6570115 35.0828857,16.2294253 35.0828857,20 C35.0828857,23.8202299 34.0972857,27.343908 32.3203714,30.4197701 L35.0828857,34.0418391 Z" id="Fill-9"></path>
                </g>
                <path d="M52.24,18 L52.24,13.808 L53.616,13.808 L55.808,18 L59.008,18 L56.352,13.28 C57.584,12.704 58.4,11.584 58.4,9.84 C58.4,6.96 56.288,6.096 53.744,6.096 L49.376,6.096 L49.376,18 L52.24,18 Z M53.52,11.552 L52.24,11.552 L52.24,8.352 L53.52,8.352 C54.88,8.352 55.6,8.72 55.6,9.84 C55.6,10.96 54.88,11.552 53.52,11.552 Z M65.616,18.224 C68.864,18.224 71.072,15.888 71.072,11.984 C71.072,8.096 68.864,5.872 65.616,5.872 C62.368,5.872 60.16,8.08 60.16,11.984 C60.16,15.888 62.368,18.224 65.616,18.224 Z M65.616,15.76 C64.048,15.76 63.088,14.304 63.088,11.984 C63.088,9.68 64.048,8.32 65.616,8.32 C67.184,8.32 68.16,9.68 68.16,11.984 C68.16,14.304 67.184,15.76 65.616,15.76 Z M76.976,18.224 C79.856,18.224 81.52,16.48 81.52,14.496 C81.52,12.816 80.64,11.824 79.168,11.232 L77.68,10.64 C76.624,10.224 75.872,9.968 75.872,9.312 C75.872,8.672 76.416,8.32 77.296,8.32 C78.224,8.32 78.96,8.64 79.744,9.232 L81.168,7.44 C80.128,6.4 78.672,5.872 77.296,5.872 C74.768,5.872 72.976,7.472 72.976,9.472 C72.976,11.2 74.144,12.24 75.392,12.736 L76.912,13.376 C77.936,13.808 78.592,14.032 78.592,14.72 C78.592,15.36 78.096,15.76 77.04,15.76 C76.096,15.76 74.992,15.264 74.144,14.544 L72.528,16.512 C73.76,17.648 75.424,18.224 76.976,18.224 Z M91.232,18 L91.232,15.6 L86.368,15.6 L86.368,13.072 L90.352,13.072 L90.352,10.672 L86.368,10.672 L86.368,8.464 L91.056,8.464 L91.056,6.096 L83.504,6.096 L83.504,18 L91.232,18 Z M98.752,18 L98.752,8.464 L101.984,8.464 L101.984,6.096 L92.672,6.096 L92.672,8.464 L95.888,8.464 L95.888,18 L98.752,18 Z M108.992,18 L108.992,8.464 L112.224,8.464 L112.224,6.096 L102.912,6.096 L102.912,8.464 L106.128,8.464 L106.128,18 L108.992,18 Z M115.472,18 L116.16,15.264 L119.68,15.264 L120.368,18 L123.376,18 L119.68,6.096 L116.256,6.096 L112.56,18 L115.472,18 Z M119.136,13.056 L116.704,13.056 L116.96,12.048 C117.264,10.864 117.584,9.472 117.872,8.224 L117.936,8.224 C118.256,9.44 118.56,10.864 118.88,12.048 L119.136,13.056 Z M127.344,18 L127.344,14.048 C127.344,12.608 127.104,10.976 126.976,9.648 L127.056,9.648 L128.224,12.256 L131.168,18 L134.08,18 L134.08,6.096 L131.36,6.096 L131.36,10.032 C131.36,11.456 131.584,13.168 131.744,14.432 L131.664,14.432 L130.496,11.792 L127.536,6.096 L124.624,6.096 L124.624,18 L127.344,18 Z M144.576,18 L144.576,15.6 L139.712,15.6 L139.712,13.072 L143.696,13.072 L143.696,10.672 L139.712,10.672 L139.712,8.464 L144.4,8.464 L144.4,6.096 L136.848,6.096 L136.848,18 L144.576,18 Z M152.096,18 L152.096,8.464 L155.328,8.464 L155.328,6.096 L146.016,6.096 L146.016,8.464 L149.232,8.464 L149.232,18 L152.096,18 Z M57.104,34 L57.104,31.6 L52.24,31.6 L52.24,29.072 L56.224,29.072 L56.224,26.672 L52.24,26.672 L52.24,24.464 L56.928,24.464 L56.928,22.096 L49.376,22.096 L49.376,34 L57.104,34 Z M61.328,34 L62.352,31.68 C62.624,31.056 62.88,30.432 63.168,29.696 L63.232,29.696 C63.552,30.432 63.824,31.056 64.112,31.68 L65.216,34 L68.4,34 L65.12,28 L68.192,22.096 L65.168,22.096 L64.304,24.224 C64.064,24.784 63.808,25.408 63.536,26.176 L63.472,26.176 C63.136,25.408 62.864,24.784 62.608,24.224 L61.648,22.096 L58.464,22.096 L61.552,27.872 L58.272,34 L61.328,34 Z M72.832,34 L72.832,30.048 L74.224,30.048 C76.736,30.048 78.928,28.8 78.928,25.968 C78.928,23.024 76.768,22.096 74.144,22.096 L69.968,22.096 L69.968,34 L72.832,34 Z M74.08,27.792 L72.832,27.792 L72.832,24.352 L74,24.352 C75.376,24.352 76.144,24.768 76.144,25.968 C76.144,27.136 75.472,27.792 74.08,27.792 Z M88.448,34 L88.448,31.6 L83.824,31.6 L83.824,22.096 L80.96,22.096 L80.96,34 L88.448,34 Z M95.424,34.224 C98.672,34.224 100.88,31.888 100.88,27.984 C100.88,24.096 98.672,21.872 95.424,21.872 C92.176,21.872 89.968,24.08 89.968,27.984 C89.968,31.888 92.176,34.224 95.424,34.224 Z M95.424,31.76 C93.856,31.76 92.896,30.304 92.896,27.984 C92.896,25.68 93.856,24.32 95.424,24.32 C96.992,24.32 97.968,25.68 97.968,27.984 C97.968,30.304 96.992,31.76 95.424,31.76 Z M105.952,34 L105.952,29.808 L107.328,29.808 L109.52,34 L112.72,34 L110.064,29.28 C111.296,28.704 112.112,27.584 112.112,25.84 C112.112,22.96 110,22.096 107.456,22.096 L103.088,22.096 L103.088,34 L105.952,34 Z M107.232,27.552 L105.952,27.552 L105.952,24.352 L107.232,24.352 C108.592,24.352 109.312,24.72 109.312,25.84 C109.312,26.96 108.592,27.552 107.232,27.552 Z M122.144,34 L122.144,31.6 L117.28,31.6 L117.28,29.072 L121.264,29.072 L121.264,26.672 L117.28,26.672 L117.28,24.464 L121.968,24.464 L121.968,22.096 L114.416,22.096 L114.416,34 L122.144,34 Z M127.36,34 L127.36,29.808 L128.736,29.808 L130.928,34 L134.128,34 L131.472,29.28 C132.704,28.704 133.52,27.584 133.52,25.84 C133.52,22.96 131.408,22.096 128.864,22.096 L124.496,22.096 L124.496,34 L127.36,34 Z M128.64,27.552 L127.36,27.552 L127.36,24.352 L128.64,24.352 C130,24.352 130.72,24.72 130.72,25.84 C130.72,26.96 130,27.552 128.64,27.552 Z" id="ROSETTANETEXPLORER" fill="#FFFFFF" fill-rule="nonzero"></path>
            </g>
        </g>
    </g>
</svg>