<?xml version="1.0" encoding="UTF-8"?>
<svg width="24px" height="24px" viewBox="0 0 24 24" version="1.1" xmlns="http://www.w3.org/2000/svg" xmlns:xlink="http://www.w3.org/1999/xlink">
    <title>编组 20</title>
    <g id="页面-1" stroke="none" stroke-width="1" fill="none" fill-rule="evenodd">
        <g id="01首页" transform="translate(-589.000000, -651.000000)">
            <g id="编组-2" transform="translate(20.000000, 638.000000)">
                <g id="编组-20" transform="translate(569.000000, 13.000000)">
                    <rect id="矩形" fill="#222A84" x="0" y="0" width="24" height="24" rx="12"></rect>
                    <g id="000-Icon图标/线性24px/55" transform="translate(4.000000, 4.000000)" fill="#FFFFFF">
                        <path d="M8,2.66666667 C9.28866442,2.66666667 10.3333333,3.71133558 10.3333333,5 L10.3333333,6.33333333 C10.3333333,7.11718283 9.9468201,7.81075732 9.35398499,8.23386546 C9.79703425,8.30425831 10.2361936,8.41206453 10.6666667,8.55555556 L12.421637,9.14054567 C12.9660932,9.32203107 13.3333333,9.83154953 13.3333333,10.4054567 L13.3333333,12.6666667 C13.3333333,13.0348565 13.0348565,13.3333333 12.6666667,13.3333333 L3.33333333,13.3333333 C2.9651435,13.3333333 2.66666667,13.0348565 2.66666667,12.6666667 L2.66666667,10.4054567 C2.66666667,9.83154953 3.03390679,9.32203107 3.57836298,9.14054567 L5.33333333,8.55555556 C5.7637996,8.4120668 6.20295186,8.30426172 6.64646994,8.2321403 C6.05300415,7.81044191 5.66666667,7.1170046 5.66666667,6.33333333 L5.66666667,5 C5.66666667,3.71133558 6.71133558,2.66666667 8,2.66666667 Z M5.79689173,9.10852602 L5.54415184,9.18801109 L3.78918149,9.77300121 C3.54170141,9.85549457 3.3674511,10.0735388 3.33781451,10.3280939 L3.33333333,10.4054567 L3.33333333,12.6666667 L12.6666667,12.6666667 L12.6666667,10.4054567 C12.6666667,10.1445898 12.5149145,9.91032983 12.2827943,9.8017167 L12.2108185,9.77300121 L10.4558482,9.18801109 C8.94563189,8.68460567 7.31932777,8.65811064 5.79689173,9.10852602 Z M8,3.33333333 C7.1163444,3.33333333 6.39330755,4.02102396 6.33687845,4.89041621 L6.33333333,5 L6.33333333,6.33333333 C6.33333333,7.25380792 7.07952542,8 8,8 C8.8836556,8 9.60669245,7.31230938 9.66312155,6.44291713 L9.66666667,6.33333333 L9.66666667,5 C9.66666667,4.07952542 8.92047458,3.33333333 8,3.33333333 Z" id="形状结合"></path>
                    </g>
                </g>
            </g>
        </g>
    </g>
</svg>