<?xml version="1.0" encoding="UTF-8"?>
<svg width="258px" height="53px" viewBox="0 0 258 53" version="1.1" xmlns="http://www.w3.org/2000/svg" xmlns:xlink="http://www.w3.org/1999/xlink">
    <title>3.标题</title>
    <g id="页面-1" stroke="none" stroke-width="1" fill="none" fill-rule="evenodd">
        <g id="05详情-任务" transform="translate(-858.000000, -161.000000)">
            <g id="3.标题" transform="translate(859.000000, 162.000000)">
                <polygon id="矩形" fill="#182D98" points="7 9 250 9 250 41 7 41"></polygon>
                <path d="M20.139,33 L20.139,21.846 L23.153,33 L25.639,33 L25.639,17.6 L23.483,17.6 L23.483,26.818 L20.997,17.6 L17.961,17.6 L17.961,33 L20.139,33 Z M30.875,33.198 C32.063,33.198 32.9613333,32.8643333 33.57,32.197 C34.1786667,31.5296667 34.483,30.5726667 34.483,29.326 L34.483,29.326 L34.483,17.6 L32.195,17.6 L32.195,29.48 C32.195,30.0373333 32.0813333,30.426 31.854,30.646 C31.6266667,30.866 31.3223333,30.976 30.941,30.976 C30.5596667,30.976 30.2553333,30.866 30.028,30.646 C29.8006667,30.426 29.687,30.0373333 29.687,29.48 L29.687,29.48 L29.687,17.6 L27.267,17.6 L27.267,29.326 C27.267,30.5726667 27.5713333,31.5296667 28.18,32.197 C28.7886667,32.8643333 29.687,33.198 30.875,33.198 Z M38.223,33 L38.223,22.11 L40.027,33 L42.315,33 L43.987,21.956 L43.987,33 L46.275,33 L46.275,17.6 L42.909,17.6 L41.259,28.534 L39.477,17.6 L36.111,17.6 L36.111,33 L38.223,33 Z M51.841,33 C53.0583333,33 53.975,32.6883333 54.591,32.065 C55.207,31.4416667 55.515,30.536 55.515,29.348 L55.515,29.348 L55.515,28.094 C55.515,27.2726667 55.3793333,26.5796667 55.108,26.015 C54.8366667,25.4503333 54.371,25.0433333 53.711,24.794 C54.2536667,24.5446667 54.6496667,24.1633333 54.899,23.65 C55.1483333,23.1366667 55.273,22.484 55.273,21.692 L55.273,21.692 L55.273,21.142 C55.273,19.954 54.9906667,19.0666667 54.426,18.48 C53.8613333,17.8933333 52.9483333,17.6 51.687,17.6 L51.687,17.6 L48.035,17.6 L48.035,33 L51.841,33 Z M51.401,23.87 L50.455,23.87 L50.455,19.8 L51.621,19.8 C52.0463333,19.8 52.358,19.9246667 52.556,20.174 C52.754,20.4233333 52.853,20.8266667 52.853,21.384 L52.853,21.384 L52.853,22.242 C52.853,22.858 52.7246667,23.2833333 52.468,23.518 C52.2113333,23.7526667 51.8556667,23.87 51.401,23.87 L51.401,23.87 Z M51.841,30.8 L50.455,30.8 L50.455,26.07 L51.533,26.07 C52.0903333,26.07 52.49,26.202 52.732,26.466 C52.974,26.73 53.095,27.2213333 53.095,27.94 L53.095,27.94 L53.095,29.282 C53.095,29.854 52.9886667,30.25 52.776,30.47 C52.5633333,30.69 52.2516667,30.8 51.841,30.8 L51.841,30.8 Z M63.567,33 L63.567,30.8 L59.387,30.8 L59.387,26.29 L62.709,26.29 L62.709,24.09 L59.387,24.09 L59.387,19.8 L63.567,19.8 L63.567,17.6 L56.967,17.6 L56.967,33 L63.567,33 Z M67.483,33 L67.483,26.73 L68.319,26.73 C68.8763333,26.73 69.2796667,26.8766667 69.529,27.17 C69.7783333,27.4633333 69.903,27.9693333 69.903,28.688 L69.903,28.688 L69.9036875,31.329375 C69.9050625,31.541125 69.9085,31.724 69.914,31.878 C69.9213333,32.0833333 69.936,32.252 69.958,32.384 C69.98,32.516 70.0056667,32.626 70.035,32.714 C70.0643333,32.802 70.0936667,32.8973333 70.123,33 L70.123,33 L72.587,33 C72.4696667,32.7066667 72.3963333,32.417 72.367,32.131 C72.3376667,31.845 72.323,31.5113333 72.323,31.13 L72.323,31.13 L72.323,28.754 C72.323,27.9473333 72.2093333,27.2616667 71.982,26.697 C71.7546667,26.1323333 71.333,25.7253333 70.717,25.476 C71.773,24.9773333 72.301,23.936 72.301,22.352 L72.301,22.352 L72.301,21.142 C72.301,19.954 72.0186667,19.0666667 71.454,18.48 C70.8893333,17.8933333 69.9763333,17.6 68.715,17.6 L68.715,17.6 L65.063,17.6 L65.063,33 L67.483,33 Z M68.429,24.53 L67.483,24.53 L67.483,19.8 L68.649,19.8 C69.0743333,19.8 69.386,19.9246667 69.584,20.174 C69.782,20.4233333 69.881,20.8266667 69.881,21.384 L69.881,21.384 L69.881,22.902 C69.881,23.518 69.7526667,23.9433333 69.496,24.178 C69.2393333,24.4126667 68.8836667,24.53 68.429,24.53 L68.429,24.53 Z M80.793,33.176 C81.981,33.176 82.8903333,32.8423333 83.521,32.175 C84.1516667,31.5076667 84.467,30.5506667 84.467,29.304 L84.467,29.304 L84.467,21.296 C84.467,20.0493333 84.1516667,19.0923333 83.521,18.425 C82.8903333,17.7576667 81.981,17.424 80.793,17.424 C79.605,17.424 78.6956667,17.7576667 78.065,18.425 C77.4343333,19.0923333 77.119,20.0493333 77.119,21.296 L77.119,21.296 L77.119,29.304 C77.119,30.5506667 77.4343333,31.5076667 78.065,32.175 C78.6956667,32.8423333 79.605,33.176 80.793,33.176 Z M80.793,30.976 C80.4116667,30.976 80.1073333,30.8623333 79.88,30.635 C79.6526667,30.4076667 79.539,30.0153333 79.539,29.458 L79.539,29.458 L79.539,21.142 C79.539,20.5846667 79.6526667,20.1923333 79.88,19.965 C80.1073333,19.7376667 80.4116667,19.624 80.793,19.624 C81.1743333,19.624 81.4786667,19.7376667 81.706,19.965 C81.9333333,20.1923333 82.047,20.5846667 82.047,21.142 L82.047,21.142 L82.047,29.458 C82.047,30.0153333 81.9333333,30.4076667 81.706,30.635 C81.4786667,30.8623333 81.1743333,30.976 80.793,30.976 Z M88.449,33 L88.449,26.642 L91.573,26.642 L91.573,24.442 L88.449,24.442 L88.449,19.8 L92.431,19.8 L92.431,17.6 L86.029,17.6 L86.029,33 L88.449,33 Z M99.427,33 L99.427,27.214 L100.571,27.214 C101.788333,27.214 102.694,26.8913333 103.288,26.246 C103.882,25.6006667 104.179,24.6546667 104.179,23.408 L104.179,23.408 L104.179,21.406 C104.179,20.1593333 103.882,19.2133333 103.288,18.568 C102.694,17.9226667 101.788333,17.6 100.571,17.6 L100.571,17.6 L97.007,17.6 L97.007,33 L99.427,33 Z M100.571,25.014 L99.427,25.014 L99.427,19.8 L100.571,19.8 C100.952333,19.8 101.245667,19.9026667 101.451,20.108 C101.656333,20.3133333 101.759,20.6946667 101.759,21.252 L101.759,21.252 L101.759,23.562 C101.759,24.1193333 101.656333,24.5006667 101.451,24.706 C101.245667,24.9113333 100.952333,25.014 100.571,25.014 L100.571,25.014 Z M106.885,33 L107.303,30.206 L110.273,30.206 L110.691,33 L113.133,33 L110.669,17.6 L107.127,17.6 L104.663,33 L106.885,33 Z M109.943,28.116 L107.611,28.116 L108.777,20.328 L109.943,28.116 Z M116.675,33 L116.675,26.73 L117.511,26.73 C118.068333,26.73 118.471667,26.8766667 118.721,27.17 C118.970333,27.4633333 119.095,27.9693333 119.095,28.688 L119.095,28.688 L119.095,31.108 C119.095,31.416 119.098667,31.6726667 119.106,31.878 C119.113333,32.0833333 119.128,32.252 119.15,32.384 C119.172,32.516 119.197667,32.626 119.227,32.714 C119.256333,32.802 119.285667,32.8973333 119.315,33 L119.315,33 L121.779,33 C121.661667,32.7066667 121.588333,32.417 121.559,32.131 C121.529667,31.845 121.515,31.5113333 121.515,31.13 L121.515,31.13 L121.515,28.754 C121.515,27.9473333 121.401333,27.2616667 121.174,26.697 C120.946667,26.1323333 120.525,25.7253333 119.909,25.476 C120.965,24.9773333 121.493,23.936 121.493,22.352 L121.493,22.352 L121.493,21.142 C121.493,19.954 121.210667,19.0666667 120.646,18.48 C120.081333,17.8933333 119.168333,17.6 117.907,17.6 L117.907,17.6 L114.255,17.6 L114.255,33 L116.675,33 Z M117.621,24.53 L116.675,24.53 L116.675,19.8 L117.841,19.8 C118.266333,19.8 118.578,19.9246667 118.776,20.174 C118.974,20.4233333 119.073,20.8266667 119.073,21.384 L119.073,21.384 L119.073,22.902 C119.073,23.518 118.944667,23.9433333 118.688,24.178 C118.431333,24.4126667 118.075667,24.53 117.621,24.53 L117.621,24.53 Z M127.345,33 L127.345,19.8 L129.875,19.8 L129.875,17.6 L122.395,17.6 L122.395,19.8 L124.925,19.8 L124.925,33 L127.345,33 Z M133.351,33 L133.351,17.6 L130.931,17.6 L130.931,33 L133.351,33 Z M138.521,33.176 C139.709,33.176 140.607333,32.8423333 141.216,32.175 C141.824667,31.5076667 142.129,30.5506667 142.129,29.304 L142.129,29.304 L142.129,27.258 L139.841,27.258 L139.841,29.458 C139.841,30.0153333 139.727333,30.404 139.5,30.624 C139.272667,30.844 138.968333,30.954 138.587,30.954 C138.205667,30.954 137.901333,30.844 137.674,30.624 C137.446667,30.404 137.333,30.0153333 137.333,29.458 L137.333,29.458 L137.333,21.142 C137.333,20.5846667 137.446667,20.1923333 137.674,19.965 C137.901333,19.7376667 138.205667,19.624 138.587,19.624 C138.968333,19.624 139.272667,19.7376667 139.5,19.965 C139.727333,20.1923333 139.841,20.5846667 139.841,21.142 L139.841,21.142 L139.841,22.792 L142.129,22.792 L142.129,21.296 C142.129,20.0493333 141.824667,19.0923333 141.216,18.425 C140.607333,17.7576667 139.709,17.424 138.521,17.424 C137.333,17.424 136.434667,17.7576667 135.826,18.425 C135.217333,19.0923333 134.913,20.0493333 134.913,21.296 L134.913,21.296 L134.913,29.304 C134.913,30.5506667 135.217333,31.5076667 135.826,32.175 C136.434667,32.8423333 137.333,33.176 138.521,33.176 Z M146.023,33 L146.023,17.6 L143.603,17.6 L143.603,33 L146.023,33 Z M150.203,33 L150.203,27.214 L151.347,27.214 C152.564333,27.214 153.47,26.8913333 154.064,26.246 C154.658,25.6006667 154.955,24.6546667 154.955,23.408 L154.955,23.408 L154.955,21.406 C154.955,20.1593333 154.658,19.2133333 154.064,18.568 C153.47,17.9226667 152.564333,17.6 151.347,17.6 L151.347,17.6 L147.783,17.6 L147.783,33 L150.203,33 Z M151.347,25.014 L150.203,25.014 L150.203,19.8 L151.347,19.8 C151.728333,19.8 152.021667,19.9026667 152.227,20.108 C152.432333,20.3133333 152.535,20.6946667 152.535,21.252 L152.535,21.252 L152.535,23.562 C152.535,24.1193333 152.432333,24.5006667 152.227,24.706 C152.021667,24.9113333 151.728333,25.014 151.347,25.014 L151.347,25.014 Z M157.661,33 L158.079,30.206 L161.049,30.206 L161.467,33 L163.909,33 L161.445,17.6 L157.903,17.6 L155.439,33 L157.661,33 Z M160.719,28.116 L158.387,28.116 L159.553,20.328 L160.719,28.116 Z M169.277,33 L169.277,19.8 L171.807,19.8 L171.807,17.6 L164.327,17.6 L164.327,19.8 L166.857,19.8 L166.857,33 L169.277,33 Z M175.283,33 L175.283,17.6 L172.863,17.6 L172.863,33 L175.283,33 Z M179.199,33 L179.199,21.846 L182.213,33 L184.699,33 L184.699,17.6 L182.543,17.6 L182.543,26.818 L180.057,17.6 L177.021,17.6 L177.021,33 L179.199,33 Z M189.847,33.176 C191.035,33.176 191.933333,32.8423333 192.542,32.175 C193.150667,31.5076667 193.455,30.5506667 193.455,29.304 L193.455,29.304 L193.455,24.42 L190.067,24.42 L190.067,26.62 L191.167,26.62 L191.167,29.458 C191.167,30.0153333 191.053333,30.404 190.826,30.624 C190.598667,30.844 190.294333,30.954 189.913,30.954 C189.531667,30.954 189.227333,30.844 189,30.624 C188.772667,30.404 188.659,30.0153333 188.659,29.458 L188.659,29.458 L188.659,21.142 C188.659,20.5846667 188.772667,20.1923333 189,19.965 C189.227333,19.7376667 189.531667,19.624 189.913,19.624 C190.294333,19.624 190.598667,19.7376667 190.826,19.965 C191.053333,20.1923333 191.167,20.5846667 191.167,21.142 L191.167,21.142 L191.167,22.792 L193.455,22.792 L193.455,21.296 C193.455,20.0493333 193.150667,19.0923333 192.542,18.425 C191.933333,17.7576667 191.035,17.424 189.847,17.424 C188.659,17.424 187.760667,17.7576667 187.152,18.425 C186.543333,19.0923333 186.239,20.0493333 186.239,21.296 L186.239,21.296 L186.239,29.304 C186.239,30.5506667 186.543333,31.5076667 187.152,32.175 C187.760667,32.8423333 188.659,33.176 189.847,33.176 Z M202.673,33 L202.673,19.8 L205.203,19.8 L205.203,17.6 L197.723,17.6 L197.723,19.8 L200.253,19.8 L200.253,33 L202.673,33 Z M207.843,33 L208.261,30.206 L211.231,30.206 L211.649,33 L214.091,33 L211.627,17.6 L208.085,17.6 L205.621,33 L207.843,33 Z M210.901,28.116 L208.569,28.116 L209.735,20.328 L210.901,28.116 Z M218.447,33.176 C219.635,33.176 220.533333,32.8423333 221.142,32.175 C221.750667,31.5076667 222.055,30.5506667 222.055,29.304 C222.055,28.5706667 221.937667,27.9326667 221.703,27.39 C221.468333,26.8473333 221.175,26.3633333 220.823,25.938 C220.471,25.5126667 220.093333,25.1203333 219.69,24.761 C219.286667,24.4016667 218.909,24.0423333 218.557,23.683 C218.205,23.3236667 217.911667,22.9423333 217.677,22.539 C217.442333,22.1356667 217.325,21.67 217.325,21.142 C217.325,20.5846667 217.431333,20.1923333 217.644,19.965 C217.856667,19.7376667 218.153667,19.624 218.535,19.624 C218.916333,19.624 219.213333,19.7376667 219.426,19.965 C219.638667,20.1923333 219.745,20.5846667 219.745,21.142 L219.745,21.142 L219.745,21.78 L222.033,21.78 L222.033,21.296 C222.033,20.0493333 221.736,19.0923333 221.142,18.425 C220.548,17.7576667 219.657,17.424 218.469,17.424 C217.281,17.424 216.39,17.7576667 215.796,18.425 C215.202,19.0923333 214.905,20.0493333 214.905,21.296 C214.905,22.0293333 215.022333,22.6673333 215.257,23.21 C215.491667,23.7526667 215.785,24.2366667 216.137,24.662 C216.489,25.0873333 216.866667,25.4796667 217.27,25.839 C217.673333,26.1983333 218.051,26.5576667 218.403,26.917 C218.755,27.2763333 219.048333,27.6576667 219.283,28.061 C219.517667,28.4643333 219.635,28.93 219.635,29.458 C219.635,30.0153333 219.521333,30.404 219.294,30.624 C219.066667,30.844 218.762333,30.954 218.381,30.954 C217.999667,30.954 217.695333,30.844 217.468,30.624 C217.240667,30.404 217.127,30.0153333 217.127,29.458 L217.127,29.458 L217.127,28.358 L214.839,28.358 L214.839,29.304 C214.839,30.5506667 215.143333,31.5076667 215.752,32.175 C216.360667,32.8423333 217.259,33.176 218.447,33.176 Z M225.861,33 L225.861,28.27 L226.609,26.862 L228.963,33 L231.449,33 L228.083,24.464 L231.449,17.6 L229.029,17.6 L225.861,24.31 L225.861,17.6 L223.441,17.6 L223.441,33 L225.861,33 Z M235.783,33.176 C236.971,33.176 237.869333,32.8423333 238.478,32.175 C239.086667,31.5076667 239.391,30.5506667 239.391,29.304 C239.391,28.5706667 239.273667,27.9326667 239.039,27.39 C238.804333,26.8473333 238.511,26.3633333 238.159,25.938 C237.807,25.5126667 237.429333,25.1203333 237.026,24.761 C236.622667,24.4016667 236.245,24.0423333 235.893,23.683 C235.541,23.3236667 235.247667,22.9423333 235.013,22.539 C234.778333,22.1356667 234.661,21.67 234.661,21.142 C234.661,20.5846667 234.767333,20.1923333 234.98,19.965 C235.192667,19.7376667 235.489667,19.624 235.871,19.624 C236.252333,19.624 236.549333,19.7376667 236.762,19.965 C236.974667,20.1923333 237.081,20.5846667 237.081,21.142 L237.081,21.142 L237.081,21.78 L239.369,21.78 L239.369,21.296 C239.369,20.0493333 239.072,19.0923333 238.478,18.425 C237.884,17.7576667 236.993,17.424 235.805,17.424 C234.617,17.424 233.726,17.7576667 233.132,18.425 C232.538,19.0923333 232.241,20.0493333 232.241,21.296 C232.241,22.0293333 232.358333,22.6673333 232.593,23.21 C232.827667,23.7526667 233.121,24.2366667 233.473,24.662 C233.825,25.0873333 234.202667,25.4796667 234.606,25.839 C235.009333,26.1983333 235.387,26.5576667 235.739,26.917 C236.091,27.2763333 236.384333,27.6576667 236.619,28.061 C236.853667,28.4643333 236.971,28.93 236.971,29.458 C236.971,30.0153333 236.857333,30.404 236.63,30.624 C236.402667,30.844 236.098333,30.954 235.717,30.954 C235.335667,30.954 235.031333,30.844 234.804,30.624 C234.576667,30.404 234.463,30.0153333 234.463,29.458 L234.463,29.458 L234.463,28.358 L232.175,28.358 L232.175,29.304 C232.175,30.5506667 232.479333,31.5076667 233.088,32.175 C233.696667,32.8423333 234.595,33.176 235.783,33.176 Z" id="Numberofparticipatingtasks" fill="#DEE9FF" fill-rule="nonzero"></path>
                <polyline id="路径" stroke="#9A9AAE" stroke-width="0.5" points="0 12 0 0 12 0"></polyline>
                <polyline id="路径备份-2" stroke="#9A9AAE" stroke-width="0.5" transform="translate(250.000000, 6.000000) scale(-1, 1) translate(-250.000000, -6.000000) " points="244 12 244 0 256 0"></polyline>
                <polyline id="路径备份" stroke="#9A9AAE" stroke-width="0.5" transform="translate(6.000000, 45.000000) scale(1, -1) translate(-6.000000, -45.000000) " points="0 51 0 39 12 39"></polyline>
                <polyline id="路径备份-3" stroke="#9A9AAE" stroke-width="0.5" transform="translate(250.000000, 45.000000) scale(-1, -1) translate(-250.000000, -45.000000) " points="244 51 244 39 256 39"></polyline>
            </g>
        </g>
    </g>
</svg>