<?xml version="1.0" encoding="UTF-8"?>
<svg width="16px" height="11px" viewBox="0 0 16 11" version="1.1" xmlns="http://www.w3.org/2000/svg" xmlns:xlink="http://www.w3.org/1999/xlink">
    <title>9.icon1</title>
    <defs>
        <filter id="filter-1">
            <feColorMatrix in="SourceGraphic" type="matrix" values="0 0 0 0 0.223529 0 0 0 0 0.329412 0 0 0 0 1.000000 0 0 0 1.000000 0"></feColorMatrix>
        </filter>
    </defs>
    <g id="页面-1" stroke="none" stroke-width="1" fill="none" fill-rule="evenodd">
        <g id="09-任务" transform="translate(-381.000000, -212.000000)">
            <g id="编组-3" transform="translate(116.000000, 197.000000)">
                <g id="4.icon2备份" transform="translate(261.000000, 8.000000)" filter="url(#filter-1)">
                    <g>
                        <path d="M8.29491267,3.86440381 C8.87514475,3.86440381 9.34551579,4.33477485 9.34551579,4.91500694 C9.34551579,4.93895087 9.34469725,4.96288781 9.34306159,4.98677581 L8.80237095,12.8874038 L16.7156417,12.3578522 C17.2954092,12.3189913 17.7969066,12.7574828 17.8357674,13.3372503 L17.8375339,13.3724125 L17.8375339,13.3724125 L17.838123,13.5001402 C17.838123,14.084126 17.3912816,14.5710115 16.80944,14.6210095 L7.34737499,15.4340909 C6.96485217,15.4669614 6.61322241,15.2863746 6.41001449,14.991259 C6.30324349,14.8412618 6.23299176,14.6614956 6.21551979,14.4643646 C6.20989387,14.400889 6.20998979,14.337036 6.2158064,14.2735776 L7.07620734,4.88671662 C7.12928815,4.30761195 7.61497873,3.86440381 8.19651102,3.86440381 L8.29491267,3.86440381 Z" id="形状结合" fill="#646464" transform="translate(12.024747, 9.651169) rotate(-45.000000) translate(-12.024747, -9.651169) "></path>
                    </g>
                </g>
            </g>
        </g>
    </g>
</svg>