<?xml version="1.0" encoding="UTF-8"?>
<svg width="168px" height="35px" viewBox="0 0 168 35" version="1.1" xmlns="http://www.w3.org/2000/svg" xmlns:xlink="http://www.w3.org/1999/xlink">
    <title>地图配图8</title>
    <g id="页面-1" stroke="none" stroke-width="1" fill="none" fill-rule="evenodd">
        <g id="01首页备份" transform="translate(-1220.000000, -2084.000000)" stroke="#FFFFFF">
            <g id="地图配图8" transform="translate(1221.000000, 2085.000000)">
                <path d="M72.4294,16.4971333 C72.4294,22.2771333 77.2354,26.9631333 83.1640667,26.9631333 C89.0920667,26.9631333 93.8980667,22.2771333 93.8980667,16.4971333 C93.8980667,10.7171333 89.0920667,6.03113333 83.1640667,6.03113333 C77.2354,6.03113333 72.4294,10.7171333 72.4294,16.4971333 Z" id="Stroke-1" stroke-width="8.70066667" opacity="0.29981268"></path>
                <path d="M83.1638,11.9632667 C80.5158,11.9632667 78.3618,13.9972667 78.3618,16.4972667 C78.3618,18.9972667 80.5158,21.0312667 83.1638,21.0312667 C85.8118,21.0312667 87.9658,18.9972667 87.9658,16.4972667 C87.9658,13.9972667 85.8118,11.9632667 83.1638,11.9632667 Z M83.1638,32.8952667 C73.9738,32.8952667 66.4971333,25.5392667 66.4971333,16.4972667 C66.4971333,7.4546 73.9738,0.0986 83.1638,0.0986 C92.3538,0.0986 99.8304667,7.4546 99.8304667,16.4972667 C99.8304667,25.5392667 92.3538,32.8952667 83.1638,32.8952667 Z" id="Stroke-3" stroke-width="0.5"></path>
                <path d="M139.096067,16.7653333 C139.096067,22.546 143.902067,27.2313333 149.830733,27.2313333 C155.758733,27.2313333 160.564733,22.546 160.564733,16.7653333 C160.564733,10.9853333 155.758733,6.29933333 149.830733,6.29933333 C143.902067,6.29933333 139.096067,10.9853333 139.096067,16.7653333 Z" id="Stroke-5" stroke-width="8.70066667" opacity="0.29981268"></path>
                <path d="M142.24,24.1664 C144.182667,26.0604 146.866,27.2317333 149.830667,27.2317333" id="Stroke-7" stroke-width="8.70066667" opacity="0.695769537"></path>
                <path d="M149.830467,12.2315333 C147.182467,12.2315333 145.028467,14.2655333 145.028467,16.7655333 C145.028467,19.2655333 147.182467,21.2995333 149.830467,21.2995333 C152.478467,21.2995333 154.632467,19.2655333 154.632467,16.7655333 C154.632467,14.2655333 152.478467,12.2315333 149.830467,12.2315333 Z M149.830467,33.1635333 C140.640467,33.1635333 133.1638,25.8075333 133.1638,16.7655333 C133.1638,7.72353333 140.640467,0.367533333 149.830467,0.367533333 C159.020467,0.367533333 166.497133,7.72353333 166.497133,16.7655333 C166.497133,25.8075333 159.020467,33.1635333 149.830467,33.1635333 Z" id="Stroke-9" stroke-width="0.5"></path>
                <path d="M9.09673333,9.17553333 C7.20206667,11.1175333 6.03073333,13.8008667 6.03073333,16.7655333" id="Stroke-11" stroke-width="8.70066667" opacity="0.695769537"></path>
                <path d="M21.031,16.766 C21.031,14.1173333 18.997,11.9633333 16.497,11.9633333 C13.997,11.9633333 11.963,14.1173333 11.963,16.766 C11.963,19.414 13.997,21.568 16.497,21.568 C18.997,21.568 21.031,19.414 21.031,16.766 Z M0.099,16.766 C0.099,7.57533333 7.455,0.0986666667 16.497,0.0986666667 C25.5396667,0.0986666667 32.8956667,7.57533333 32.8956667,16.766 C32.8956667,25.9553333 25.5396667,33.432 16.497,33.432 C7.455,33.432 0.099,25.9553333 0.099,16.766 Z" id="Stroke-13" stroke-width="0.5"></path>
            </g>
        </g>
    </g>
</svg>