<?xml version="1.0" encoding="UTF-8"?>
<svg width="72px" height="72px" viewBox="0 0 72 72" version="1.1" xmlns="http://www.w3.org/2000/svg" xmlns:xlink="http://www.w3.org/1999/xlink">
    <title>地图配图7</title>
    <g id="页面-1" stroke="none" stroke-width="1" fill="none" fill-rule="evenodd">
        <g id="01首页备份" transform="translate(-1318.000000, -1096.000000)" stroke="#FFFFFF">
            <g id="地图配图7" transform="translate(1319.000000, 1096.000000)">
                <g id="编组" transform="translate(0.000000, 0.412775)">
                    <path d="M12.5944951,35.2935431 C12.5944951,22.9130922 22.6305539,12.8770333 35.0103088,12.8770333 C47.3900637,12.8770333 57.4261225,22.9130922 57.4261225,35.2935431 C57.4261225,47.673298 47.3900637,57.7093569 35.0103088,57.7093569 C22.6305539,57.7093569 12.5944951,47.673298 12.5944951,35.2935431 Z" id="Stroke-1" stroke-width="18.1690392" opacity="0.09"></path>
                    <path d="M35.0103784,57.7094265 C28.8201529,57.7094265 23.2167216,55.2007598 19.1599765,51.1440147 C15.1032314,47.0872696 12.5945647,41.4831422 12.5945647,35.2936127" id="Stroke-3" stroke-width="18.1690392" opacity="0.16"></path>
                    <path d="M35.0110745,70.0974647 C15.8194961,70.0974647 0.206456863,54.4844255 0.206456863,35.2935431 C0.206456863,16.1026608 15.8194961,0.489621569 35.0110745,0.489621569 C54.2012608,0.489621569 69.8143,16.1026608 69.8143,35.2935431 C69.8143,54.4844255 54.2012608,70.0974647 35.0110745,70.0974647 Z" id="Stroke-5" stroke-width="0.5" opacity="0.400000006"></path>
                </g>
                <path d="M35.0110745,25.6777765 C29.4807314,25.6777765 24.9819765,30.1765314 24.9819765,35.7061784 C24.9819765,41.2365216 29.4807314,45.7345804 35.0110745,45.7345804 C40.5400255,45.7345804 45.0387804,41.2365216 45.0387804,35.7061784 C45.0387804,30.1765314 40.5400255,25.6777765 35.0110745,25.6777765 Z" id="Stroke-7" stroke-width="0.5" opacity="0.600000024"></path>
            </g>
        </g>
    </g>
</svg>