<?xml version="1.0" encoding="UTF-8"?>
<svg width="8px" height="16px" viewBox="0 0 8 16" version="1.1" xmlns="http://www.w3.org/2000/svg" xmlns:xlink="http://www.w3.org/1999/xlink">
    <title>2.icon3</title>
    <g id="页面-1" stroke="none" stroke-width="1" fill="none" fill-rule="evenodd">
        <g id="01首页" transform="translate(-99.000000, -2804.000000)" fill="#E93865">
            <g id="编组-27备份-2" transform="translate(20.000000, 2307.000000)">
                <g id="编组-27" transform="translate(20.000000, 79.000000)">
                    <g id="编组-25备份-8" transform="translate(0.000000, 406.000000)">
                        <g id="2.icon3" transform="translate(51.000000, 8.000000)">
                            <path d="M12.1967766,4.5994109 C12.0968266,4.46686303 11.9031734,4.46686303 11.8032234,4.5994109 L8.30497245,9.18686016 C8.17378804,9.35820252 8.2924787,9.60713388 8.50174907,9.60713388 L10.8755622,9.60713388 L10.8755622,19.24137 C10.8755622,19.3836165 10.988006,19.5 11.1254373,19.5 L12.8745627,19.5 C13.011994,19.5 13.1244378,19.3836165 13.1244378,19.24137 L13.1244378,9.60713388 L15.4982509,9.60713388 C15.7075213,9.60713388 15.826212,9.35496965 15.6950275,9.18686016 L12.1967766,4.5994109 Z" id="Path备份" transform="translate(12.000000, 12.000000) rotate(-360.000000) translate(-12.000000, -12.000000) "></path>
                        </g>
                    </g>
                </g>
            </g>
        </g>
    </g>
</svg>