<?xml version="1.0" encoding="UTF-8"?>
<svg width="26px" height="20px" viewBox="0 0 26 20" version="1.1" xmlns="http://www.w3.org/2000/svg" xmlns:xlink="http://www.w3.org/1999/xlink">
    <title>3.icon1</title>
    <g id="页面-1" stroke="none" stroke-width="1" fill="none" fill-rule="evenodd">
        <g id="05详情-任务" transform="translate(-40.000000, -121.000000)" fill="#3954FF" fill-rule="nonzero">
            <g id="编组-2" transform="translate(40.000000, 110.000000)">
                <g id="3.icon1" transform="translate(13.000000, 21.000000) scale(-1, 1) translate(-13.000000, -21.000000) translate(0.000000, 11.000000)">
                    <path d="M24.9354108,8.30983708 L16.91752,13.0717419 C15.6934145,13.8236216 14.1020775,12.8837719 14.4081038,11.4426692 L14.4081038,1.91885964 C14.1020774,0.415100241 15.6322093,-0.462092751 16.91752,0.289786977 L24.9354108,4.9890351 C26.2207215,5.7409148 26.2207215,7.55795741 24.9354108,8.30983708 Z" id="路径"></path>
                    <path d="M1.31017539,8.05921053 C-0.893214444,11.6932957 -0.097545904,15.4526942 2.10584393,17.77099 C3.39115466,19.0867795 5.22731285,19.9639724 7.1858816,19.9639724 L12.7555614,19.9639724 C13.6736405,19.9639724 14.4081038,19.2120927 14.4081038,18.2722431 C14.4081038,17.3950501 13.6736405,16.6431704 12.8167667,16.6431704 L7.36949742,16.6431704 C6.26780251,16.6431704 5.28851815,16.204574 4.55405484,15.4526942 C3.20753884,14.0742481 2.77910191,11.6306391 4.55405484,9.50031329 C5.04369703,8.93640352 6.08418666,8.43515038 6.81864996,8.43515038 L14.4693091,8.43515038 L14.4693091,5.17700502 L6.57382885,5.17700502 C4.43164428,5.17700502 2.41187027,6.24216794 1.31017539,8.05921053 Z" id="路径"></path>
                </g>
            </g>
        </g>
    </g>
</svg>