<?xml version="1.0" encoding="UTF-8"?>
<svg width="1882px" height="595px" viewBox="0 0 1882 595" version="1.1" xmlns="http://www.w3.org/2000/svg" xmlns:xlink="http://www.w3.org/1999/xlink">
    <title>3.底纹</title>
    <defs>
        <linearGradient x1="0%" y1="0%" x2="0%" y2="100%" id="linearGradient-1">
            <stop stop-color="#81AAFF" stop-opacity="0.1" offset="0%"></stop>
            <stop stop-color="#021D53" stop-opacity="0.2" offset="100%"></stop>
        </linearGradient>
    </defs>
    <g id="页面-1" stroke="none" stroke-width="1" fill="none" fill-rule="evenodd" opacity="0.5">
        <g id="03详情-元数据" transform="translate(-19.000000, -400.000000)">
            <g id="3.底纹" transform="translate(20.000000, 401.000000)">
                <path d="M5,0 L1875,0 C1877.76142,-5.07265313e-16 1880,2.23857625 1880,5 L1880,588 C1880,590.761424 1877.76142,593 1875,593 L5,593 C2.23857625,593 3.38176876e-16,590.761424 0,588 L0,5 C-3.38176876e-16,2.23857625 2.23857625,5.07265313e-16 5,0 Z" id="Rectangle-5-Copy-12" stroke-opacity="0.3" stroke="#0A54EA" fill="url(#linearGradient-1)" opacity="0.100000001"></path>
                <path d="M877.5,0 L1002.5,0 C1002.77614,-5.07265313e-17 1003,0.223857625 1003,0.5 C1003,0.776142375 1002.77614,1 1002.5,1 L877.5,1 C877.223858,1 877,0.776142375 877,0.5 C877,0.223857625 877.223858,5.07265313e-17 877.5,0 Z" id="Rectangle-5-Copy-12" fill="#B2CBFF" opacity="0.1"></path>
                <path d="M0,11 L0,5 C0,2.23857625 2.23857625,0 5,0 L11,0" id="Rectangle-5-Copy-12" stroke="#0A54EA"></path>
                <path d="M0,593 L0,587 C0,584.238576 2.23857625,582 5,582 L11,582" id="Rectangle-5-Copy-12" stroke="#0A54EA" transform="translate(5.500000, 587.500000) scale(1, -1) translate(-5.500000, -587.500000) "></path>
                <path d="M1869,11 L1869,5 C1869,2.23857625 1871.23858,0 1874,0 L1880,0" id="Rectangle-5-Copy-12" stroke="#0A54EA" transform="translate(1874.500000, 5.500000) scale(-1, 1) translate(-1874.500000, -5.500000) "></path>
                <path d="M1869,593 L1869,587 C1869,584.238576 1871.23858,582 1874,582 L1880,582" id="Rectangle-5-Copy-12" stroke="#0A54EA" transform="translate(1874.500000, 587.500000) scale(-1, -1) translate(-1874.500000, -587.500000) "></path>
            </g>
        </g>
    </g>
</svg>