<?xml version="1.0" encoding="UTF-8"?>
<svg width="1882px" height="297px" viewBox="0 0 1882 297" version="1.1" xmlns="http://www.w3.org/2000/svg" xmlns:xlink="http://www.w3.org/1999/xlink">
    <title>7.边框</title>
    <defs>
        <linearGradient x1="0%" y1="0%" x2="0%" y2="100%" id="linearGradient-1">
            <stop stop-color="#81AAFF" stop-opacity="0.1" offset="0%"></stop>
            <stop stop-color="#021D53" stop-opacity="0.2" offset="100%"></stop>
        </linearGradient>
    </defs>
    <g id="页面-1" stroke="none" stroke-width="1" fill="none" fill-rule="evenodd" opacity="0.5">
        <g id="07日志" transform="translate(-19.000000, -358.000000)">
            <g id="7.边框" transform="translate(20.000000, 359.000000)">
                <path d="M5,1 L1875,1 C1877.76142,1 1880,3.23857625 1880,6 L1880,290 C1880,292.761424 1877.76142,295 1875,295 L5,295 C2.23857625,295 3.38176876e-16,292.761424 0,290 L0,6 C-3.38176876e-16,3.23857625 2.23857625,1 5,1 Z" id="Rectangle-5-Copy-12" stroke-opacity="0.3" stroke="#0A54EA" fill="url(#linearGradient-1)" opacity="0.100000001"></path>
                <path d="M877.5,1 L1002.5,1 C1002.77614,1 1003,1.22385763 1003,1.5 C1003,1.77614237 1002.77614,2 1002.5,2 L877.5,2 C877.223858,2 877,1.77614237 877,1.5 C877,1.22385763 877.223858,1 877.5,1 Z" id="Rectangle-5-Copy-12" fill="#B2CBFF" opacity="0.1"></path>
                <path d="M0,11 L0,5 C0,2.23857625 2.23857625,0 5,0 L11,0" id="Rectangle-5-Copy-12" stroke="#0A54EA"></path>
                <path d="M0,295 L0,289 C0,286.238576 2.23857625,284 5,284 L11,284" id="Rectangle-5-Copy-12" stroke="#0A54EA" transform="translate(5.500000, 289.500000) scale(1, -1) translate(-5.500000, -289.500000) "></path>
                <path d="M1869,11 L1869,5 C1869,2.23857625 1871.23858,0 1874,0 L1880,0" id="Rectangle-5-Copy-12" stroke="#0A54EA" transform="translate(1874.500000, 5.500000) scale(-1, 1) translate(-1874.500000, -5.500000) "></path>
                <path d="M1869,295 L1869,289 C1869,286.238576 1871.23858,284 1874,284 L1880,284" id="Rectangle-5-Copy-12" stroke="#0A54EA" transform="translate(1874.500000, 289.500000) scale(-1, -1) translate(-1874.500000, -289.500000) "></path>
            </g>
        </g>
    </g>
</svg>